<?xml version="1.0" encoding="UTF-8" standalone="no"?>
<svg
   xmlns:dc="http://purl.org/dc/elements/1.1/"
   xmlns:cc="http://creativecommons.org/ns#"
   xmlns:rdf="http://www.w3.org/1999/02/22-rdf-syntax-ns#"
   xmlns:svg="http://www.w3.org/2000/svg"
   xmlns="http://www.w3.org/2000/svg"
   viewBox="0 0 2600.0532 604.96002"
   height="604.96002"
   width="2600.0532"
   xml:space="preserve"
   id="svg2"
   version="1.1"><metadata
     id="metadata8"><rdf:RDF><cc:Work
         rdf:about=""><dc:format>image/svg+xml</dc:format><dc:type
           rdf:resource="http://purl.org/dc/dcmitype/StillImage" /></cc:Work></rdf:RDF></metadata><defs
     id="defs6"><clipPath
       id="clipPath18"
       clipPathUnits="userSpaceOnUse"><path
         id="path16"
         d="M 0,453.72 H 1950.037 V 0 H 0 Z" /></clipPath><clipPath
       id="clipPath84"
       clipPathUnits="userSpaceOnUse"><path
         id="path82"
         d="M 32.9704,415.982 H 378.781 V 37.1747 H 32.9704 Z" /></clipPath><linearGradient
       id="linearGradient110"
       spreadMethod="pad"
       gradientTransform="matrix(293.31158,199.73979,199.73979,-293.31158,81.583305,163.91608)"
       gradientUnits="userSpaceOnUse"
       y2="0"
       x2="1"
       y1="0"
       x1="0"><stop
         id="stop106"
         offset="0"
         style="stop-opacity:1;stop-color:#00e1ff" /><stop
         id="stop108"
         offset="1"
         style="stop-opacity:1;stop-color:#007aff" /></linearGradient><linearGradient
       id="linearGradient130"
       spreadMethod="pad"
       gradientTransform="matrix(293.31158,199.73979,199.73979,-293.31158,105.02227,129.49669)"
       gradientUnits="userSpaceOnUse"
       y2="0"
       x2="1"
       y1="0"
       x1="0"><stop
         id="stop126"
         offset="0"
         style="stop-opacity:1;stop-color:#00e1ff" /><stop
         id="stop128"
         offset="1"
         style="stop-opacity:1;stop-color:#007aff" /></linearGradient><linearGradient
       id="linearGradient150"
       spreadMethod="pad"
       gradientTransform="matrix(293.31158,199.73979,199.73979,-293.31158,76.521675,171.34891)"
       gradientUnits="userSpaceOnUse"
       y2="0"
       x2="1"
       y1="0"
       x1="0"><stop
         id="stop146"
         offset="0"
         style="stop-opacity:1;stop-color:#00e1ff" /><stop
         id="stop148"
         offset="1"
         style="stop-opacity:1;stop-color:#007aff" /></linearGradient><linearGradient
       id="linearGradient170"
       spreadMethod="pad"
       gradientTransform="matrix(293.31158,199.73979,199.73979,-293.31158,116.40523,112.78117)"
       gradientUnits="userSpaceOnUse"
       y2="0"
       x2="1"
       y1="0"
       x1="0"><stop
         id="stop166"
         offset="0"
         style="stop-opacity:1;stop-color:#00e1ff" /><stop
         id="stop168"
         offset="1"
         style="stop-opacity:1;stop-color:#007aff" /></linearGradient></defs><g
     transform="matrix(1.3333333,0,0,-1.3333333,0,604.96)"
     id="g10"><g
       id="g12"><g
         clip-path="url(#clipPath18)"
         id="g14"><g
           transform="translate(604.3259,162.1585)"
           id="g20"><path
             id="path22"
             style="fill:#24b2fa;fill-opacity:1;fill-rule:nonzero;stroke:none"
             d="m 0,0 c -18.024,-18.024 -41.971,-27.038 -65.661,-27.038 -60.768,0 -92.439,42.488 -92.696,91.153 -0.516,48.151 30.899,93.213 92.696,93.213 23.69,0 47.637,-9.013 65.661,-27.036 l -9.527,-8.241 c -15.45,15.45 -35.791,22.918 -56.134,22.918 -52.528,0 -79.565,-37.08 -79.308,-80.339 0.516,-42.23 27.295,-78.792 79.308,-78.792 20.343,0 40.942,7.724 56.391,22.915 z" /></g><g
           transform="translate(604.3259,162.1585)"
           id="g24"><path
             id="path26"
             style="fill:none;stroke:#24b2fa;stroke-width:5;stroke-linecap:butt;stroke-linejoin:miter;stroke-miterlimit:10;stroke-dasharray:none;stroke-opacity:1"
             d="m 0,0 c -18.024,-18.024 -41.971,-27.038 -65.661,-27.038 -60.768,0 -92.439,42.488 -92.696,91.153 -0.516,48.151 30.899,93.213 92.696,93.213 23.69,0 47.637,-9.013 65.661,-27.036 l -9.527,-8.241 c -15.45,15.45 -35.791,22.918 -56.134,22.918 -52.528,0 -79.565,-37.08 -79.308,-80.339 0.516,-42.23 27.295,-78.792 79.308,-78.792 20.343,0 40.942,7.724 56.391,22.915 z" /></g><g
           transform="translate(728.9553,137.182)"
           id="g28"><path
             id="path30"
             style="fill:#24b2fa;fill-opacity:1;fill-rule:nonzero;stroke:none"
             d="M 0,0 V 22.915 C -9.784,5.406 -27.552,-1.803 -45.318,-2.062 c -33.989,0 -57.421,20.859 -57.421,56.136 v 73.383 h 12.617 V 54.33 c 0,-28.839 17.767,-44.288 45.319,-44.03 26.264,0.256 44.546,20.083 44.546,46.347 v 70.81 H 12.36 L 12.36,0 Z" /></g><g
           transform="translate(728.9553,137.182)"
           id="g32"><path
             id="path34"
             style="fill:none;stroke:#24b2fa;stroke-width:5;stroke-linecap:butt;stroke-linejoin:miter;stroke-miterlimit:10;stroke-dasharray:none;stroke-opacity:1"
             d="M 0,0 V 22.915 C -9.784,5.406 -27.552,-1.803 -45.318,-2.062 c -33.989,0 -57.421,20.859 -57.421,56.136 v 73.383 h 12.617 V 54.33 c 0,-28.839 17.767,-44.288 45.319,-44.03 26.264,0.256 44.546,20.083 44.546,46.347 v 70.81 H 12.36 L 12.36,0 Z" /></g><g
           transform="translate(787.1545,201.0384)"
           id="g36"><path
             id="path38"
             style="fill:#24b2fa;fill-opacity:1;fill-rule:nonzero;stroke:none"
             d="m 0,0 c 0,-31.671 22.144,-53.557 52.014,-53.557 28.581,0 52.013,18.024 52.013,53.301 0,35.791 -23.432,53.559 -52.013,53.559 C 22.659,53.303 0,31.673 0,0 M -0.257,116.389 V 35.535 c 10.299,20.6 30.898,29.868 52.785,29.868 35.534,0 63.858,-23.688 63.858,-65.659 0,-42.229 -28.066,-65.662 -63.6,-65.662 -21.63,0 -42.486,10.815 -53.043,30.126 v -28.064 h -12.361 v 180.245 z" /></g><g
           transform="translate(787.1545,201.0384)"
           id="g40"><path
             id="path42"
             style="fill:none;stroke:#24b2fa;stroke-width:5;stroke-linecap:butt;stroke-linejoin:miter;stroke-miterlimit:10;stroke-dasharray:none;stroke-opacity:1"
             d="m 0,0 c 0,-31.671 22.144,-53.557 52.014,-53.557 28.581,0 52.013,18.024 52.013,53.301 0,35.791 -23.432,53.559 -52.013,53.559 C 22.659,53.303 0,31.673 0,0 Z M -0.257,116.389 V 35.535 c 10.299,20.6 30.898,29.868 52.785,29.868 35.534,0 63.858,-23.688 63.858,-65.659 0,-42.229 -28.066,-65.662 -63.6,-65.662 -21.63,0 -42.486,10.815 -53.043,30.126 v -28.064 h -12.361 v 180.245 z" /></g><g
           transform="translate(970.6784,137.182)"
           id="g44"><path
             id="path46"
             style="fill:#24b2fa;fill-opacity:1;fill-rule:nonzero;stroke:none"
             d="m 0,0 v 179.986 h 129.518 v -32.7 H 33.988 V 98.104 h 90.381 V 66.689 H 33.988 V 0 Z" /></g><path
           id="path48"
           style="fill:#24b2fa;fill-opacity:1;fill-rule:nonzero;stroke:none"
           d="m 1121.316,137.182 h 31.413 v 127.457 h -31.413 z m 34.246,162.733 c 0,-24.461 -37.079,-24.461 -37.079,0 0,24.462 37.079,24.462 37.079,0" /><g
           transform="translate(1274.5245,137.182)"
           id="g50"><path
             id="path52"
             style="fill:#24b2fa;fill-opacity:1;fill-rule:nonzero;stroke:none"
             d="m 0,0 v 66.433 c 0,19.312 -10.558,33.988 -30.642,33.988 -19.311,0 -32.444,-16.221 -32.444,-35.532 V 0 h -31.157 v 127.201 h 28.068 l 2.059,-17.253 c 12.875,12.617 25.75,19.056 41.715,19.056 29.868,0 53.815,-22.403 53.815,-62.315 V 0 Z" /></g><g
           transform="translate(1357.4415,200.7825)"
           id="g54"><path
             id="path56"
             style="fill:#24b2fa;fill-opacity:1;fill-rule:nonzero;stroke:none"
             d="m 0,0 c 0,-24.206 16.737,-38.624 37.594,-38.624 49.438,0 49.438,76.989 0,76.989 C 16.737,38.365 0,24.203 0,0 m 76.217,63.342 h 30.127 V -63.601 H 76.733 l -1.545,18.539 C 67.978,-59.998 48.15,-67.207 33.989,-67.462 -3.605,-67.721 -31.414,-44.547 -31.414,0 c 0,43.773 29.097,66.689 66.175,66.433 16.994,0 33.217,-7.983 40.427,-20.6 z" /></g><g
           transform="translate(1583.7823,137.182)"
           id="g58"><path
             id="path60"
             style="fill:#24b2fa;fill-opacity:1;fill-rule:nonzero;stroke:none"
             d="m 0,0 v 66.433 c 0,19.312 -10.558,33.988 -30.642,33.988 -19.311,0 -32.444,-16.221 -32.444,-35.532 V 0 h -31.157 v 127.201 h 28.067 l 2.06,-17.253 c 12.875,12.617 25.75,19.056 41.715,19.056 29.869,0 53.814,-22.403 53.814,-62.315 L 31.413,0 Z" /></g><g
           transform="translate(1751.1564,153.4027)"
           id="g62"><path
             id="path64"
             style="fill:#24b2fa;fill-opacity:1;fill-rule:nonzero;stroke:none"
             d="m 0,0 c -14.677,-14.418 -30.127,-20.083 -48.923,-20.083 -36.822,0 -67.464,22.145 -67.464,67.204 0,45.062 30.642,67.206 67.464,67.206 18.024,0 31.928,-5.15 45.833,-18.797 L -22.917,74.674 c -7.468,6.694 -16.736,10.041 -25.491,10.041 -21.115,0 -36.565,-15.45 -36.565,-37.594 0,-24.203 16.48,-37.077 36.05,-37.077 10.041,0 20.084,2.832 27.809,10.556 z" /></g><g
           transform="translate(1865.9982,215.4588)"
           id="g66"><path
             id="path68"
             style="fill:#24b2fa;fill-opacity:1;fill-rule:nonzero;stroke:none"
             d="m 0,0 c -2.061,16.479 -14.936,24.721 -32.959,24.721 -16.996,0 -30.9,-8.242 -35.534,-24.721 z m -69.01,-26.006 c 2.061,-15.708 15.708,-27.038 37.852,-27.038 11.587,0 26.78,4.379 33.99,11.847 L 22.916,-61.026 C 9.526,-74.93 -12.36,-81.624 -31.673,-81.624 c -43.773,0 -69.779,27.036 -69.779,67.718 0,38.627 26.264,66.436 67.462,66.436 42.487,0 69.008,-26.265 64.116,-78.536 z" /></g><g
           transform="translate(402.0978,156.702)"
           id="g70"><path
             id="path72"
             style="fill:#070707;fill-opacity:1;fill-rule:nonzero;stroke:none"
             d="m 0,0 v 139.752 c 0,26.864 -14.332,51.688 -37.597,65.12 l -121.029,69.876 c -23.265,13.432 -51.928,13.432 -75.193,0 l -121.029,-69.876 c -23.265,-13.432 -37.597,-38.256 -37.597,-65.12 V 0 c 0,-26.864 14.332,-51.688 37.597,-65.12 l 121.029,-69.876 c 23.265,-13.432 51.928,-13.432 75.193,0 L -37.597,-65.12 C -14.332,-51.688 0,-26.864 0,0" /></g><g
           transform="translate(205.8757,441.5238)"
           id="g74"><path
             id="path76"
             style="fill:#2e2e2e;fill-opacity:1;fill-rule:nonzero;stroke:none"
             d="M 0,0 C -12.982,0 -25.964,-3.358 -37.597,-10.074 L -158.626,-79.95 c -23.265,-13.432 -37.597,-38.256 -37.597,-65.119 v -139.753 c 0,-26.864 14.332,-51.687 37.597,-65.119 l 121.029,-69.876 c 11.633,-6.717 24.615,-10.075 37.597,-10.075 12.982,0 25.964,3.358 37.597,10.075 l 121.029,69.876 c 23.265,13.432 37.596,38.255 37.596,65.119 v 139.753 c 0,26.863 -14.331,51.687 -37.596,65.119 L 37.597,-10.074 C 25.964,-3.358 12.982,0 0,0 m 0,-9.047 c 11.595,0 23.032,-3.064 33.073,-8.862 l 121.029,-69.876 c 20.4,-11.778 33.073,-33.728 33.073,-57.284 v -139.753 c 0,-23.556 -12.673,-45.506 -33.073,-57.284 L 33.073,-411.982 C 23.032,-417.78 11.595,-420.844 0,-420.844 c -11.595,0 -23.032,3.064 -33.073,8.862 l -121.03,69.876 c -20.4,11.778 -33.073,33.728 -33.073,57.284 v 139.753 c 0,23.556 12.673,45.506 33.073,57.284 l 121.03,69.876 c 10.041,5.798 21.478,8.862 33.073,8.862" /></g><g
           id="g78"><g
             id="g80" /><g
             id="g92"><g
               style="opacity:0.05000311"
               id="g90"
               clip-path="url(#clipPath84)"><g
                 id="g88"
                 transform="translate(378.7805,165.0057)"><path
                   id="path86"
                   style="fill:#ffffff;fill-opacity:1;fill-rule:nonzero;stroke:none"
                   d="m 0,0 v 123.145 c 0,23.672 -12.628,45.545 -33.129,57.381 l -106.647,61.573 c -20.5,11.836 -45.758,11.836 -66.258,0 l -106.647,-61.573 c -20.5,-11.836 -33.129,-33.709 -33.129,-57.381 V 0 c 0,-23.672 12.629,-45.545 33.129,-57.381 l 106.647,-61.573 c 20.5,-11.836 45.758,-11.836 66.258,0 l 106.647,61.573 C -12.628,-45.545 0,-23.672 0,0" /></g></g></g></g></g></g><g
       id="g94"><g
         id="g96"><g
           id="g102"><g
             id="g104"><path
               id="path112"
               style="fill:url(#linearGradient110);stroke:none"
               d="m 313.228,323.297 c -18.425,-6.4 -36.796,-12.96 -55.282,-19.175 v 0 c -2.849,-0.958 -6.509,-1.382 -9.26,-0.458 v 0 c -28.494,9.567 -56.862,9.538 -85.341,-0.005 v 0 c -2.484,-0.832 -5.714,-0.909 -8.181,-0.088 v 0 c -19.328,6.433 -38.588,13.077 -57.797,19.86 v 0 c -8.152,2.879 -12.096,1.281 -14.471,-7.08 v 0 c -4.759,-16.755 -9.18,-33.607 -14.037,-50.333 v 0 c -1.434,-4.933 -0.814,-9.053 1.58,-13.521 v 0 c 15.202,-28.373 30.095,-56.913 45.418,-85.218 v 0 c 2.039,-3.767 5.452,-7.282 9.067,-9.613 v 0 c 10.802,-6.966 22.123,-13.033 30.206,-23.593 v 0 c 4.705,-6.146 10.005,-11.927 15.641,-17.229 v 0 c 2.48,-2.332 6.393,-4.077 9.782,-4.321 v 0 c 8.465,-0.605 17.002,-0.199 25.509,-0.199 v 0 c -0.001,-0.006 -0.001,-0.012 -0.001,-0.018 v 0 c 8.14,0 16.312,-0.421 24.406,0.192 v 0 c 3.587,0.272 8.078,1.679 10.342,4.201 v 0 c 14.018,15.614 27.386,31.765 46.812,41.336 v 0 c 3.28,1.616 6.265,5.011 8.046,8.309 v 0 c 15.654,28.991 31.118,58.087 46.284,87.337 v 0 c 1.643,3.17 2.15,7.778 1.292,11.252 v 0 c -4.128,16.725 -8.854,33.303 -13.473,49.904 v 0 c -2.011,7.228 -4.113,10.234 -8.621,10.234 v 0 c -2.062,-0.001 -4.63,-0.631 -7.921,-1.774 M 186.69,128.776 c -2.811,0.152 -5.848,2.044 -8.166,3.904 v 0 c -2.769,2.221 -4.991,5.174 -7.253,7.969 v 0 c -9.886,12.218 -21.501,22.249 -35.543,29.529 v 0 c -2.79,1.447 -5.299,4.339 -6.831,7.164 v 0 c -14.09,25.982 -27.885,52.123 -41.908,78.141 v 0 c -2.121,3.936 -2.574,7.504 -1.262,11.88 v 0 c 3.429,11.427 6.404,22.992 9.41,34.542 v 0 c 0.763,2.93 1.58,5.171 5.254,3.861 v 0 c 11.598,-4.134 23.2,-8.255 34.784,-12.426 v 0 c 0.637,-0.229 1.126,-0.869 2.052,-1.612 v 0 c -5.945,-4.828 -11.702,-9.325 -17.255,-14.063 v 0 c -5.566,-4.749 -5.476,-4.853 -0.42,-9.929 v 0 c 6.057,-6.079 6.057,-6.079 12.479,-0.647 v 0 c 44.546,37.693 106.55,36.778 150.056,-2.204 v 0 c 1.106,-0.992 2.31,-1.874 5.585,-4.546 v 0 c 2.588,3.492 5.446,6.829 7.595,10.571 v 0 c 0.63,1.096 -0.192,3.98 -1.305,4.964 v 0 c -6.07,5.371 -12.437,10.405 -19.416,16.141 v 0 c 1.871,0.865 3.392,1.719 5.012,2.292 v 0 c 10.001,3.542 20.073,6.889 30.017,10.583 v 0 c 3.941,1.465 5.867,0.736 6.957,-3.49 v 0 c 3.171,-12.289 6.761,-24.471 9.858,-36.776 v 0 c 0.537,-2.129 0.092,-4.985 -0.942,-6.958 v 0 c -14.251,-27.185 -28.61,-54.314 -43.187,-81.325 v 0 c -1.424,-2.639 -4.097,-5.166 -6.803,-6.456 v 0 c -15.311,-7.293 -26.612,-19.057 -36.849,-32.079 v 0 C 233,130.672 226.436,127.021 216.731,128.125 v 0 c -5.743,0.652 -11.562,0.587 -17.386,0.52 v 0 c -1.762,-0.02 -3.523,-0.04 -5.283,-0.04 v 0 c -2.462,0 -4.921,0.039 -7.372,0.171" /></g></g></g></g><g
       id="g114"><g
         id="g116"><g
           id="g122"><g
             id="g124"><path
               id="path132"
               style="fill:url(#linearGradient130);stroke:none"
               d="m 276.322,253.449 c -3.673,-0.065 -7.347,-0.042 -11.021,-0.021 v 0 c -4.841,0.029 -9.682,0.058 -14.516,-0.11 v 0 c -11.404,-0.396 -20.569,-8.387 -22.397,-19.697 v 0 c -0.869,-5.374 -0.715,-10.913 -1.024,-16.377 v 0 c 0.092,-0.006 0.185,-0.011 0.277,-0.015 v 0 c 0,-3.595 -0.306,-7.227 0.117,-10.77 v 0 c 0.249,-2.089 1.65,-5.76 2.539,-5.762 v 0 c 4.616,-0.01 10.161,-0.374 13.523,2.007 v 0 c 2.209,1.565 3.922,2.666 6.418,2.743 v 0 c 15.949,0.488 25.033,9.5 25.782,25.578 v 0 c 0.078,1.67 -0.049,4.442 0.771,4.811 v 0 c 6.375,2.87 3.408,8.409 4.03,12.861 v 0 c 0.451,3.232 -0.948,4.754 -4.299,4.754 v 0 c -0.066,0 -0.133,-0.001 -0.2,-0.002 m -32.069,-25.628 c 0.229,6.435 3.516,9.315 10.143,9.39 v 0 c 4.73,0.054 5.244,-2.611 4.902,-5.581 v 0 c -0.22,-7.272 -3.243,-9.752 -10.165,-9.957 v 0 c -0.122,-0.004 -0.241,-0.006 -0.357,-0.006 v 0 c -4.541,0 -4.645,2.731 -4.523,6.154" /></g></g></g></g><g
       id="g134"><g
         id="g136"><g
           id="g142"><g
             id="g144"><path
               id="path152"
               style="fill:url(#linearGradient150);stroke:none"
               d="m 137.538,253.234 c -2.172,-0.198 -6.063,-1.299 -6.084,-2.075 v 0 c -0.117,-4.494 0.382,-9.076 1.3,-13.498 v 0 c 0.496,-2.394 3.15,-4.482 3.272,-6.79 v 0 c 0.832,-15.838 9.553,-24.753 25.264,-25.341 v 0 c 1.668,-0.063 4.473,0.014 4.804,-0.783 v 0 c 2.076,-5.001 5.783,-4.744 9.469,-4.489 v 0 c 1.242,0.086 2.481,0.173 3.657,0.059 v 0 c 3.291,-0.321 4.847,1.183 4.8,4.615 v 0 c -0.116,8.503 0.243,17.024 -0.162,25.51 v 0 c -0.618,12.984 -10.644,22.473 -23.648,22.859 v 0 c -2.544,0.075 -5.091,0.057 -7.638,0.038 v 0 c -1.234,-0.008 -2.468,-0.017 -3.702,-0.015 v 0 c -2.24,0.003 -4.488,0.091 -6.728,0.091 v 0 c -1.54,0 -3.076,-0.041 -4.604,-0.181 M 162.1,221.657 c -6.758,0.241 -9.755,3.365 -9.895,10.251 v 0 c -0.088,4.362 1.951,5.531 5.873,5.379 v 0 c 6.626,-0.259 9.375,-3.049 9.381,-10.413 v 0 c 0.553,-3.503 -0.964,-5.226 -4.852,-5.226 v 0 c -0.165,0 -0.334,0.003 -0.507,0.009" /></g></g></g></g><g
       id="g154"><g
         id="g156"><g
           id="g162"><g
             id="g164"><path
               id="path172"
               style="fill:url(#linearGradient170);stroke:none"
               d="m 201.833,183.165 c -5.079,-0.011 -10.157,-0.024 -15.236,-0.015 v 0 c -3.851,0.006 -7.304,-0.838 -8.87,-4.738 v 0 c -1.717,-4.28 0.095,-7.823 3.27,-10.639 v 0 c 5.657,-5.02 11.503,-9.825 17.182,-14.821 v 0 c 4.33,-3.809 8.917,-4.223 13.385,-0.73 v 0 c 6.987,5.464 13.813,11.148 20.487,16.99 v 0 c 1.571,1.376 2.262,3.756 2.828,4.747 v 0 c 0.097,5.966 -3.56,9.142 -9.689,9.187 v 0 c -3.87,0.029 -7.74,0.039 -11.61,0.039 v 0 c -3.915,0 -7.831,-0.01 -11.747,-0.02" /></g></g></g></g></g></svg>