<svg id="Layer_1" data-name="Layer 1" xmlns="http://www.w3.org/2000/svg" xmlns:xlink="http://www.w3.org/1999/xlink" viewBox="0 0 2741.18 429.89"><defs><style>.cls-1,.cls-2{fill:#1993fb;}.cls-1{stroke:#1993fb;stroke-miterlimit:10;stroke-width:5px;}.cls-3{fill:#070707;}.cls-4{fill:#2e2e2e;}.cls-5{fill:#fff;opacity:0.05;}.cls-6{fill:url(#linear-gradient);}.cls-7{fill:url(#linear-gradient-2);}.cls-8{fill:url(#linear-gradient-3);}.cls-9{fill:url(#linear-gradient-4);}</style><linearGradient id="linear-gradient" x1="81.58" y1="289.8" x2="374.89" y2="90.06" gradientUnits="userSpaceOnUse"><stop offset="0" stop-color="#00e1ff"/><stop offset="1" stop-color="#007aff"/></linearGradient><linearGradient id="linear-gradient-2" x1="105.02" y1="324.22" x2="398.33" y2="124.48" xlink:href="#linear-gradient"/><linearGradient id="linear-gradient-3" x1="76.52" y1="282.37" x2="369.83" y2="82.63" xlink:href="#linear-gradient"/><linearGradient id="linear-gradient-4" x1="116.41" y1="340.94" x2="409.72" y2="141.2" xlink:href="#linear-gradient"/></defs><path class="cls-1" d="M710.15,328.1a146.52,146.52,0,0,1-103.68,42.69c-96,0-146-67.09-146.37-143.93-.81-76,48.79-147.18,146.37-147.18a146.52,146.52,0,0,1,103.68,42.69l-15,13c-24.4-24.4-56.52-36.19-88.64-36.19-82.94,0-125.63,58.55-125.23,126.86.82,66.68,43.1,124.41,125.23,124.41a127.19,127.19,0,0,0,89-36.18Z" transform="translate(-9.65 -12.2)"/><path class="cls-1" d="M906.94,367.54V331.36c-15.45,27.64-43.5,39-71.56,39.43-53.66,0-90.66-32.93-90.66-88.63V166.28h19.92V281.75c0,45.54,28.05,69.93,71.56,69.52,41.47-.4,70.34-31.71,70.34-73.18V166.28h19.92V367.54Z" transform="translate(-9.65 -12.2)"/><path class="cls-1" d="M998.43,82.93V210.6c16.27-32.53,48.79-47.16,83.35-47.16,56.11,0,100.84,37.4,100.84,103.67,0,66.68-44.32,103.68-100.43,103.68-34.15,0-67.09-17.07-83.76-47.57v44.32H978.92V82.93Zm.41,183.78c0,50,35,84.56,82.13,84.56,45.13,0,82.13-28.46,82.13-84.16,0-56.51-37-84.57-82.13-84.57C1034.62,182.54,998.84,216.7,998.84,266.71Z" transform="translate(-9.65 -12.2)"/><path class="cls-2" d="M1288.63,367.54V83.34h204.51V135H1342.3v77.66H1485v49.61H1342.3v105.3Z" transform="translate(-9.65 -12.2)"/><path class="cls-2" d="M1580.56,110.58c0,38.63-58.55,38.63-58.55,0S1580.56,72,1580.56,110.58Zm-54.08,55.7V367.54h49.61V166.28Z" transform="translate(-9.65 -12.2)"/><path class="cls-2" d="M1768.4,367.54V262.64c0-30.49-16.67-53.67-48.38-53.67-30.49,0-51.23,25.61-51.23,56.11V367.54h-49.2V166.69h44.32l3.25,27.24c20.33-19.92,40.66-30.09,65.87-30.09,47.16,0,85,35.37,85,98.4v105.3Z" transform="translate(-9.65 -12.2)"/><path class="cls-2" d="M2019.68,167.09h47.57V367.54h-46.76l-2.44-29.27c-11.38,23.58-42.69,35-65,35.37-59.36.4-103.27-36.19-103.27-106.53,0-69.12,45.94-105.3,104.49-104.9,26.83,0,52.45,12.61,63.83,32.53Zm-120.35,100c0,38.22,26.43,61,59.36,61,78.07,0,78.07-121.57,0-121.57C1925.76,206.53,1899.33,228.9,1899.33,267.11Z" transform="translate(-9.65 -12.2)"/><path class="cls-2" d="M2256.73,367.54V262.64c0-30.49-16.67-53.67-48.39-53.67-30.49,0-51.23,25.61-51.23,56.11V367.54h-49.19V166.69h44.31l3.26,27.24c20.33-19.92,40.66-30.09,65.86-30.09,47.17,0,85,35.37,85,98.4v105.3Z" transform="translate(-9.65 -12.2)"/><path class="cls-2" d="M2521,341.93c-23.17,22.76-47.57,31.71-77.25,31.71-58.14,0-106.52-35-106.52-106.12s48.38-106.12,106.52-106.12c28.46,0,50.42,8.13,72.37,29.68L2484.83,224a60.88,60.88,0,0,0-40.25-15.85c-33.34,0-57.74,24.39-57.74,59.36,0,38.22,26,58.55,56.92,58.55,15.86,0,31.72-4.48,43.91-16.67Z" transform="translate(-9.65 -12.2)"/><path class="cls-2" d="M2593.38,285c3.26,24.81,24.81,42.7,59.77,42.7,18.3,0,42.29-6.92,53.67-18.71l31.71,31.31c-21.14,21.95-55.7,32.52-86.19,32.52-69.12,0-110.18-42.69-110.18-106.92,0-61,41.47-104.91,106.52-104.91,67.09,0,109,41.48,101.24,124Zm109-41.06c-3.25-26-23.58-39-52-39-26.84,0-48.79,13-56.11,39Z" transform="translate(-9.65 -12.2)"/><path class="cls-3" d="M402.1,297V157.27a75.18,75.18,0,0,0-37.6-65.12l-121-69.88a75.2,75.2,0,0,0-75.19,0l-121,69.88a75.18,75.18,0,0,0-37.6,65.12V297a75.19,75.19,0,0,0,37.6,65.12l121,69.87a75.15,75.15,0,0,0,75.19,0l121-69.87A75.19,75.19,0,0,0,402.1,297Z" transform="translate(-9.65 -12.2)"/><path class="cls-4" d="M205.88,21.24A66.22,66.22,0,0,1,239,30.11L360,100a66.33,66.33,0,0,1,33.07,57.29V297A66.33,66.33,0,0,1,360,354.3L239,424.18a66.17,66.17,0,0,1-66.15,0l-121-69.88A66.33,66.33,0,0,1,18.7,297V157.27A66.33,66.33,0,0,1,51.77,100l121-69.87a66.22,66.22,0,0,1,33.08-8.87m0-9a75.08,75.08,0,0,0-37.6,10.07l-121,69.88a75.18,75.18,0,0,0-37.6,65.12V297a75.19,75.19,0,0,0,37.6,65.12l121,69.87a75.15,75.15,0,0,0,75.19,0l121-69.87A75.19,75.19,0,0,0,402.1,297V157.27a75.18,75.18,0,0,0-37.6-65.12l-121-69.88A75.07,75.07,0,0,0,205.88,12.2Z" transform="translate(-9.65 -12.2)"/><path class="cls-5" d="M378.78,288.71V165.57a66.25,66.25,0,0,0-33.13-57.38L239,46.62a66.22,66.22,0,0,0-66.25,0L66.1,108.19A66.25,66.25,0,0,0,33,165.57V288.71A66.27,66.27,0,0,0,66.1,346.1l106.65,61.57a66.27,66.27,0,0,0,66.25,0L345.65,346.1A66.27,66.27,0,0,0,378.78,288.71Z" transform="translate(-9.65 -12.2)"/><path class="cls-6" d="M206.06,341.4c-8.51,0-17,.4-25.51-.2a17.21,17.21,0,0,1-9.78-4.32,145,145,0,0,1-15.64-17.23c-8.08-10.56-19.4-16.63-30.21-23.6a27.7,27.7,0,0,1-9.06-9.61c-15.33-28.3-30.22-56.84-45.42-85.22a16.77,16.77,0,0,1-1.58-13.52c4.86-16.72,9.28-33.58,14-50.33,2.37-8.36,6.32-10,14.47-7.08q28.82,10.17,57.79,19.86a13.86,13.86,0,0,0,8.19-.09c28.47-9.54,56.84-9.57,85.34,0,2.75.92,6.41.5,9.26-.46,18.48-6.22,36.85-12.78,55.28-19.18,10.48-3.64,13.61-2.07,16.54,8.46,4.62,16.6,9.34,33.18,13.47,49.91A17.45,17.45,0,0,1,342,200q-22.76,43.88-46.28,87.34c-1.78,3.29-4.77,6.69-8.05,8.31-19.42,9.57-32.79,25.72-46.81,41.33-2.26,2.52-6.76,3.93-10.34,4.2-8.1.61-16.27.19-24.41.19ZM137.23,162a10.27,10.27,0,0,0-2-1.61Q117.8,154.13,100.39,148c-3.67-1.31-4.49.93-5.25,3.87-3,11.54-6,23.11-9.41,34.54A14.37,14.37,0,0,0,87,198.24c14,26,27.82,52.16,41.91,78.14a17.86,17.86,0,0,0,6.83,7.16,111.41,111.41,0,0,1,35.54,29.53c2.26,2.8,4.48,5.75,7.25,8,2.32,1.86,5.36,3.75,8.17,3.9,10,.54,20.13-.47,30,.66,9.71,1.1,16.27-2.55,21.88-9.69,10.24-13,21.54-24.78,36.85-32.07a16.11,16.11,0,0,0,6.8-6.46q21.87-40.51,43.19-81.33a10.69,10.69,0,0,0,.94-7c-3.1-12.31-6.69-24.49-9.86-36.78-1.09-4.23-3-4.95-7-3.49-9.94,3.69-20,7-30,10.58-1.62.58-3.14,1.43-5,2.3,7,5.73,13.34,10.76,19.41,16.14,1.11,1,1.94,3.86,1.31,5-2.15,3.74-5,7.08-7.6,10.57-3.27-2.67-4.48-3.55-5.58-4.55-43.51-39-105.51-39.89-150.06-2.2-6.42,5.43-6.42,5.43-12.48-.65-5-5.07-5.14-5.18.42-9.92S131.28,166.82,137.23,162Z" transform="translate(-9.65 -12.2)"/><path class="cls-7" d="M227.36,236.48c.31-5.47.16-11,1-16.38a23.15,23.15,0,0,1,22.39-19.7c8.51-.29,17,0,25.54-.13,3.5-.06,5,1.46,4.5,4.75-.62,4.45,2.35,10-4,12.86-.82.37-.69,3.14-.77,4.81-.75,16.08-9.83,25.09-25.78,25.58-2.5.08-4.21,1.18-6.42,2.75-3.36,2.38-8.91,2-13.52,2-.89,0-2.29-3.67-2.54-5.76-.43-3.54-.12-7.17-.12-10.77Zm31.94-14.39c.34-3-.17-5.64-4.9-5.58-6.63.07-9.92,3-10.15,9.39-.12,3.51,0,6.29,4.88,6.15C256.06,231.84,259.08,229.36,259.3,222.09Z" transform="translate(-9.65 -12.2)"/><path class="cls-8" d="M148.87,200.4c3.78,0,7.56-.09,11.34,0,13,.38,23,9.87,23.65,22.86.4,8.48,0,17,.16,25.51,0,3.43-1.51,4.93-4.8,4.61-4.66-.45-10.35,2.26-13.13-4.43-.33-.79-3.13-.72-4.8-.78-15.71-.59-24.43-9.5-25.26-25.34-.13-2.31-2.78-4.4-3.28-6.79a60.13,60.13,0,0,1-1.3-13.5c0-.78,3.92-1.88,6.09-2.07C141.29,200.14,145.09,200.39,148.87,200.4Zm18.59,26.45c0-7.37-2.76-10.16-9.38-10.42-3.92-.15-6,1-5.87,5.38.13,6.89,3.13,10,9.89,10.25C166.36,232.21,168,230.5,167.46,226.85Z" transform="translate(-9.65 -12.2)"/><path class="cls-9" d="M234.88,279.76c-.57,1-1.26,3.37-2.83,4.75q-10,8.76-20.49,17c-4.46,3.49-9.05,3.08-13.38-.73-5.68-5-11.53-9.8-17.18-14.82-3.18-2.82-5-6.36-3.27-10.64,1.56-3.9,5-4.75,8.87-4.74,12.86,0,25.73-.09,38.59,0C231.32,270.62,235,273.79,234.88,279.76Z" transform="translate(-9.65 -12.2)"/></svg>