<?xml version="1.0" encoding="utf-8"?>
<!-- Generator: Adobe Illustrator 23.0.1, SVG Export Plug-In . SVG Version: 6.00 Build 0)  -->
<svg version="1.1" id="Layer_1" xmlns="http://www.w3.org/2000/svg" xmlns:xlink="http://www.w3.org/1999/xlink" x="0px" y="0px"
	 viewBox="0 0 1352 587" style="enable-background:new 0 0 1352 587;" xml:space="preserve">
<style type="text/css">
	.st0{clip-path:url(#SVGID_2_);}
	.st1{fill:#606060;}
	.st2{fill:#FCB60B;}
	.st3{fill:#FCCE38;}
	.st4{fill:#EDECEF;}
	.st5{fill:#6A1D0C;}
	.st6{fill:#884A3D;}
	.st7{fill:#FFFFFF;}
	.st8{fill:#FDE288;}
	.st9{fill:url(#SVGID_3_);}
	.st10{fill:url(#SVGID_4_);}
	.st11{fill:url(#SVGID_5_);}
	.st12{fill:url(#SVGID_6_);}
	.st13{fill:url(#SVGID_7_);}
	.st14{fill:url(#SVGID_8_);}
	.st15{fill:url(#SVGID_9_);}
	.st16{fill:url(#SVGID_10_);}
	.st17{fill:url(#SVGID_11_);}
	.st18{fill:#070707;}
	.st19{fill:#2E2E2E;}
	.st20{opacity:5.000000e-02;fill:#FFFFFF;enable-background:new    ;}
	.st21{fill:url(#SVGID_12_);}
	.st22{fill:url(#SVGID_13_);}
	.st23{fill:url(#SVGID_14_);}
	.st24{fill:url(#SVGID_15_);}
	.st25{fill:url(#SVGID_16_);}
	.st26{fill:url(#SVGID_17_);}
	.st27{fill:url(#SVGID_18_);}
	.st28{fill:url(#SVGID_19_);}
	.st29{fill:url(#SVGID_20_);}
	.st30{fill:url(#SVGID_21_);}
	.st31{fill:url(#SVGID_22_);}
	.st32{fill:url(#SVGID_23_);}
	.st33{clip-path:url(#SVGID_25_);}
	.st34{opacity:0.1;}
	.st35{fill:#FEF8D4;}
	.st36{opacity:0.1;fill:none;stroke:#FEF8D4;stroke-width:7.34;stroke-miterlimit:10;enable-background:new    ;}
	.st37{opacity:0.8;}
	.st38{fill:url(#SVGID_26_);}
	.st39{fill:url(#SVGID_27_);}
	.st40{fill:url(#SVGID_28_);}
	.st41{fill:url(#SVGID_29_);}
	.st42{fill:url(#SVGID_30_);}
	.st43{fill:url(#SVGID_31_);}
	.st44{fill:url(#SVGID_32_);}
	.st45{fill:url(#SVGID_33_);}
	.st46{fill:url(#SVGID_34_);}
</style>
<title>lionfinance</title>
<g>
	<defs>
		<rect id="SVGID_1_" x="295.1" width="1057.4" height="587"/>
	</defs>
	<clipPath id="SVGID_2_">
		<use xlink:href="#SVGID_1_"  style="overflow:visible;"/>
	</clipPath>
	<g class="st0">
		<path class="st1" d="M1408,109.2c-4.6-0.2-8.8-2.2-13.4-2.6c-11.3-1.1-22.6,1.3-32.6,6.8c-0.4,0.3-0.9,0.5-1.3,0.7
			c-0.2,0.1-0.4-0.2-0.9-0.3c4-4,8.5-7.5,13.3-10.5c-0.4-1.5-1.5-0.8-2.2-0.8c-21.2,1-40.1,8.8-57.2,21.3c-5.4,4-10.3,8.5-14.6,13.7
			c-14.5,17.2-17.4,38.3-7.8,58.7c0.3,0.7,0.6,1.4,0.9,2.1c0.5,1,1,1.9,1.4,2.9l0.3,0.5l-36.8,61.1c-9.3,5.4-17.1,13-25.4,19.6
			c-5.9,4.6-12.2,8.9-18.1,13.4c-6.9,5.2-12.8,11.5-19.3,17.1c-9.9,8.5-17.2,19.5-21.9,31.9c-1,2.6-2.4,5.2-2.7,8.1
			c-0.3,0.8-0.6,1.6-1,2.4c-4.3,2-3,6.9-4.4,10.4c-3.7,9-1.9,16.6-4.2,26s0.5,20.4,1.7,25.7c0.2,1.4,0.4,2.3,0.5,2.8
			c0,0.1,0,0.1,0,0.2c-5.8-5.1-11.2-10.7-17.1-15.6c-4.4-7.4-9.3-13.8-14.3-18c-6.8-10.7-14.5-20.8-23-30.1
			c-7.4-8.2-15.4-15.8-24.1-22.7c-1-0.9-2-1.7-3.1-2.4l-1-0.7c-13.5-9.8-24-13.7-30.6-15.2c-1.6-0.5-3.2-0.9-4.9-1.1
			c-1.1-0.2-2.2-0.1-3.2,0.2l0,0l-0.4,0.1c4.8-6.2,8.3-13.3,10.5-20.8c1.2-4.3,2.5-8.4,2.5-12.8c0-1.7,1.5-2.6,2.8-3.4
			c0.7-0.3,1.5-0.5,2.2-0.5c5.7-0.2,7.8-2.6,9.7-8.9c0.9-3.2,3.4-8.1,1.4-12.5c-0.3-0.6-0.7-1.2-0.1-1.7c0.8-0.5,1.7-0.5,2.5-0.1
			c3.1,0.8,6.2,1.4,9.4,1.8c-0.3-8-2.9-15.6-6.3-23.1c-3.5-5.8-8.2-10.8-13.6-14.8v0.1c-2.1-5.2-4.7-10.2-7.8-14.9
			c-1.3-2-1-2.8,1.3-3.4c7.1-1.7,14-4.1,20.6-7.2c19.1-9.1,34.8-22,44.1-41.8c0.7-1.5,1.6-3,1.7-4.7c8.3-22.6,7.9-45.1-0.2-67.5
			c-0.1-1.6-0.7-3.2-1.7-4.5l0,0c-2.6-7.7-7-14.3-11.9-20.6c-9.8-12.5-21.9-22-36.6-27.7c-1.3-0.5-9.9-2.9-9.9-2.9
			c-0.5,0.2-5.8-1.3-8.1-1.8c-19.5-1.7-38.5,0.1-56.4,8.8s-30.8,22.8-39.7,40.8c-3.2,6.4-5.8,13-7.6,19.9c-0.4,1-0.9,1.9-1.5,2.7
			c-2.2-1.3-4.5-2.3-7-2.8l-1-0.2l0,0c-8.7-4.8-18.2-6.5-27.8-8.2l-4-0.7l0,0l-8.6-1c-16.9-2.6-33.5-0.6-49.9,3.8
			c-21.8,5.7-42.6,15.1-61.3,27.7c-10.2,6.9-18.8,15.7-26.2,25.6c-6.9,9.1-13.9,18-20,27.7c-0.1,1.2-0.4,2.5-0.9,3.6
			c0.4-1.2,0.7-2.4,0.9-3.6c-3.4,4.9-3.4,4.9-8.8,1.6c-14.5-8.9-29.9-15-46.9-15.6c-20.2-0.7-38.3,5.6-54.3,18.1l-1.1,0.8
			c-1-0.1-1.5,1.4-2.6,0.8l-7.3,7l-4.5,4.3c-0.9,3.4-3.6,5-6.1,7l-1.1,1.3c-0.1,1.2-1,1.8-1.8,2.5c-0.4,0.7-0.8,1.5-1.3,2.2
			c0.1,1.3-0.9,1.9-1.6,2.7c-1,1-1.7,2.2-2,3.6c0.3,1-0.2,1.6-1,1.9l-0.6,1c0.2,0.6,0,1.4-0.7,1.7c-0.2,0.1-0.3,0.4-0.4,0.6
			c0.8,1.4-0.1,2.1-1.1,2.7c-0.4,1-0.7,1.9-1.1,2.8c0.4,0.7,0.2,1.5-0.4,2c0,0-0.1,0.1-0.2,0.1c-0.8,1.3-1.2,2.8-1.2,4.3
			c0,0.2-0.1,0.4-0.2,0.5c-1.6,3.9-2,8-2.5,12.1c-3.3,27.8,4.6,52.2,22,73.4c16,19.4,36.3,30,61.5,30.1c16.8,0,32.4-5.2,47.4-12.3
			c2.2-1,2.9-0.8,3.1,1.5c1.6,17.8,8.9,33.2,18.6,47.7c0.1,3.1,0.8,8.7,4.1,17.9c3.7,7.3,8.2,14.1,14.2,19.1
			c1.8-3.3,3.4-6.7,4.8-10.2c0.3-0.9,0.7-1.8,1.6-2s1,0.5,1.3,1.1c2.2,4.2,6.7,5.4,10.3,7.8c5.3,3.7,9.2,2,12.8-2.5
			c0.5-0.6,1.1-1.1,1.7-1.5c1.4-0.7,3-1.3,4.3-0.3c3.5,2.7,7.5,4.1,11.5,5.7c12.5,4.9,24.8,5,37.1,2.3l0,0
			c-2.6,8.1-6.7,36.9-7.1,52.6c-25.5-5.6-51.7-10.8-74.5-18c-15.6-4.9-29.2-11-42.7-17.1c3-6,4.4-12.7,4.1-19.4l0.3-0.1
			c-0.5-7.6-2.9-15-7-21.4L722,384c-0.6-0.2-1-0.8-0.8-1.4c-6.1-7.7-13.3-13.8-22.7-17.1c-16.6-5.8-33,2.3-37.8,19.6
			c-1.2,4.4-2.7,6.8-7.3,6.3c0.3,0.2,0.5,0.5,0.7,0.8c-3.2,0.3-6.1,0.7-8.3,1.1l-1.2-0.1c-10.8,1.5-22.2,16.3-21.3,26.2l0,0
			c-0.5,1.4-1.7,2.5-3.2,2.8c-6.5,1.7-12.5,4.4-16.2,10.5l-0.8,1.3c-5.7,6.5-6.3,14.3-4.8,22.2c2.8,14.3,11.2,24.6,23.5,31.6
			c0.8,0.4,1.5,0.9,2.3,1.4c5.1,2.5,10.7,4,16.3,4.6c1.4,0.3,2.8,0.2,4.1-0.3l0.1,0c0.3,0.3,0.8,0.2,1-0.1c0,0,0-0.1,0.1-0.1
			c3.9-0.5,7.8-0.6,11.3-2.6c0.4-0.3,0.9-0.5,1.3-0.8c0.8-0.3,1.5-0.6,2.2-1c2.1,1.1,4.5,2.4,7.2,3.7l-1-0.3l3.5,1.5
			c20,9.9,53.4,24.7,91.3,34.4c6.6,1.7,16.5,4,27.7,6.5c12.5,3.3,25,6.1,37.1,8.2c11.5,2.5,22,4.8,29.5,6.4
			c6.7,15.8,18.5,32.8,29.3,44.3c5.6,6,35.2,14.8,35.6,19.5c0.4,4.1-8.2,10-11.1,14.5c-5.3,8.4-7.7,17-8.6,26.8
			c-1.6,18.8,5.1,37.1,16,52.2c6.8,9.4,37.7,30.2,41.7,32.3c1,0.5,4.8,1.5,13.4,4.8c2.4,0.9,12.1,0.6,13.8,2.5
			c1.4,1.6,0.6,11.7,1.8,14.9c2.8,7.3,7.6,13.9,14.6,17.7c9.5,5,14.6,0.9,22.7-2.6c1.4-0.6,3.3-2.8,4.9-3.5c5-2.4,8.5,0.1,13.7-3.9
			c3.3-2.6,4.3-7.4,7.4-9.8c2.4-1.9,6.2-1.5,8.9-3.4c15.1-10.6,7.3-35.7-6.3-43.7c12.2-4.7,17-13.9,26.9-20.7
			c11.7-8.1,25.6-13.5,37.9-20.6c4.6-2.7,10.7-8.4,15.5-4c1.8,1.7,4.4,12.6,6.4,15.4c3.3,4.6,7.3,9.5,12.2,12.5
			c8.9,5.5,19.1,4.6,27.7-1.1c3.2-2.1,4.9-5,8.3-6.4c5.6-2.3,12,0.5,17.9-3.5c4.5-3,5.7-8.3,9.6-11.5c4.5-3.7,9.3-2.7,14.6-5.5
			c8.3-4.5,12.5-15.3,12.8-24.3c0.4-14.2-9.8-32-22.9-36.4c-4.2-1.4-8.7-1.3-12.8,0.2c-2.3,0.8-6.9,5.7-9.1,5.6
			c-5.6,0-6-12-6.3-20.5c2.4-0.3,4.8-0.9,7.1-1.6c4-1.5,8.5-2.7,10.4-7.3c0.6-1.5,1.9-1,2.7-1.7c0.2,14.2,12.9,27.3,22.8,28.6
			c6.8,0.9,12.7-0.4,16.9-6.4c0.8-1.4,2.5-2.2,4.1-1.9c8.4,0.8,16.4-4,19.6-11.8c0.6-1.5,1.1-2.4,2.9-2.3c3.4,0.1,6.9-0.6,9-3.2
			c3.7-4.6,6.9-9.8,6.8-16.1c0-2,0.7-4.1-0.3-6.1c-0.2-3.3-1.2-6.4-2.8-9.2c-0.4-0.7-0.8-1.4-1.1-2.1c-3.7-4.3-7.2-8.7-12-11.9
			l-0.7-0.3c-1.2,0.5-1.9-0.5-2.8-1c1.6-6.2,4.8-11.8,5.7-18.2c0.5-3.7,2.3-31.1,1.1-38.6c-2.5-16.6-9.4-32.2-20-45.3
			c-5.7-7.3-13-13.2-21.2-17.5c-1.1-0.6-2.1-1.5-3.6-1.1c-6.3-4-13.5-5.2-20.7-5.4c-7.2-0.4-14.4,0.9-21,3.7c-2.7,1.2-2.1-1-2-2.2
			c0.4-9.6,0.7-19.3,2.5-28.7c2.1-11.6,4.8-23.1,9.4-34l12.8-21.2c5.6-6.5,11.8-12.5,18.6-17.8c15.3-12.6,31.8-23.7,46.7-37
			c16.9-15.1,29.8-32.9,34.9-55.6c1-4.4,1.3-9,1.9-13.5l0.8,0.5c13.9-6.7,28.9-15.6,38.6-28.1c2.8-3.5,4.8-7.5,5.9-11.8
			c4.6-18.6,15.4-33.1,29.1-45.7c4.2-3.9,9.2-6.7,14.1-9.3L1408,109.2z"/>
		<path class="st1" d="M1138.9,136.4c0.1-0.1,0-0.3-0.1-0.4C1138.9,136.1,1139,136.3,1138.9,136.4z"/>
		<path class="st1" d="M651.7,155.7c-1.5,0.5-2.9,1.4-3.9,2.7C648.7,157.1,650.1,156.2,651.7,155.7z"/>
		<path class="st1" d="M654.5,152.9c0.5-0.1,1-0.3,1.4-0.6C655.5,152.6,655,152.8,654.5,152.9z"/>
		<path class="st1" d="M657.3,151.6c0.2-0.1,0.4-0.2,0.7-0.2C657.7,151.4,657.5,151.5,657.3,151.6z"/>
		<path class="st1" d="M748.7,271.5l-0.6-0.3C748.2,271,748.8,271.3,748.7,271.5z"/>
		<path class="st1" d="M758.5,296.8L758.5,296.8L758.5,296.8z"/>
		<path class="st1" d="M1301.3,494.5L1301.3,494.5z"/>
		<path class="st1" d="M1301.4,494.6L1301.4,494.6L1301.4,494.6c0.1,0,0.2,0,0.3,0l0,0C1301.6,494.6,1301.5,494.6,1301.4,494.6z"/>
		<path class="st1" d="M1301.6,494.5l-0.3-0.1l0,0L1301.6,494.5z"/>
		<path class="st1" d="M1316,187.9c0,0.6-0.1,1.2-0.2,1.8C1315.9,189.1,1316,188.5,1316,187.9z"/>
		<path class="st1" d="M1091.4,440.4c-3.8-5.4-7.9-10.8-10.5-17l0.2,0.5c5.4,11.1,13.8,20.3,20.7,30.4c1,1.4,1.9,2.8,2.8,4.3
			C1100.5,452.4,1095.8,446.5,1091.4,440.4z"/>
		<path class="st1" d="M945.5,309.5c1.1-2.3,2.5-4.4,4.2-6.3c1.1-2,2.4-3.8,4-5.4c-4.2,5.8-7.1,10.4-7.6,11.3
			c-2.4,4.5-5.8,7.5-9.7,8.8C940.4,316.3,943.6,313.3,945.5,309.5z"/>
		<path class="st1" d="M973.3,461.8c-3.3,2-6.3,3.8-8.9,5.4C967.4,465.3,970.5,463.6,973.3,461.8z"/>
		<path class="st1" d="M1017,245.8c0-0.1-0.1-0.2-0.1-0.3C1016.9,245.6,1017,245.7,1017,245.8z"/>
		<path class="st1" d="M1039.7,421.5c1.8-1,3.7-2,5.5-2.9c-2.4,1.3-4.8,2.6-7.2,3.8C1038.6,422.1,1039.1,421.8,1039.7,421.5z"/>
		<path class="st1" d="M1062.4,230.8c0.2-0.1,0.4-0.4,0.6-0.6C1062.8,230.5,1062.6,230.7,1062.4,230.8z"/>
		<path class="st1" d="M1067.1,212.7c0.5,0.5,1.1,0.8,1.8,1C1068.2,213.5,1067.6,213.2,1067.1,212.7z"/>
		<path class="st1" d="M1071.3,215.1c0.2,0.3,0.3,0.6,0.4,0.9C1071.6,215.7,1071.5,215.3,1071.3,215.1z"/>
		<path class="st1" d="M861.5,314l0.4-0.2h0.3L861.5,314z"/>
		<path class="st1" d="M1082.8,209.3c-0.6-1.5-1.2-3-1.8-4.4C1081.7,206.3,1082.2,207.9,1082.8,209.3z"/>
		<path class="st1" d="M1116.7,129.6c0,0.1,0,0.2-0.1,0.3l0,0C1116.7,129.7,1116.7,129.6,1116.7,129.6z"/>
		<path class="st1" d="M1112.8,134.3c0,0.1,0,0.2-0.1,0.4l0,0C1112.7,134.6,1112.7,134.5,1112.8,134.3z"/>
		<path class="st1" d="M1109.5,139.9L1109.5,139.9L1109.5,139.9L1109.5,139.9z"/>
		<path class="st1" d="M1107.4,166.3l-0.3,0.7l0,0L1107.4,166.3z"/>
		<path class="st1" d="M814.5,368.3L814.5,368.3c0.2-0.8,0.4-1.6,0.7-2.4C815,366.7,814.8,367.5,814.5,368.3L814.5,368.3z"/>
		<path class="st1" d="M1314.8,195.9c0.2-0.7,0.3-1.5,0.4-2.2C1315.4,194.5,1315.2,195.3,1314.8,195.9z"/>
		<path class="st2" d="M1119.4,388.2c-13.7-11.2-19.1-25.7-31.7-37.5c-7.2-6.7-12.5-13.6-18.4-17.7c-6.9-4.8-26.1-15.6-36.5-17
			c-5.7-0.8-7,3.8-10.8,7.6c-4.7,4.6-10.2,8.4-16.2,11.3c-12,5.6-27.1,7.3-33.6,20c-5.8,11.2-7.4,24.2-18.9,31.8
			c-7.5,5-19.7,7.4-28.2,10.2c-10.1,3.4-21.6,8.1-32.4,8.2c-16,0.2-50.4-7.2-54.4,5.4c-3.3,10.4-9.1,54.3-6.5,61.9
			c2.4,7-0.7,11,0.8,19.1c3.3,17.4,3.4,34.6,8.7,51.7c5.5,17.8,19.6,38.8,32.3,52.2c5.6,6,35.2,14.8,35.6,19.5
			c0.4,4.1-8.2,10-11.1,14.5c-5.3,8.4-7.7,17-8.6,26.8c-1.6,18.8,5.1,37.1,16,52.2c6.8,9.4,37.7,30.2,41.8,32.3
			c1,0.5,4.8,1.5,13.3,4.8c2.4,0.9,12.1,0.6,13.8,2.5c1.4,1.6,0.6,11.7,1.8,14.9c2.8,7.3,7.6,13.9,14.6,17.7
			c9.5,5,14.6,0.9,22.7-2.6c1.4-0.6,3.3-2.8,4.9-3.5c5-2.4,8.5,0.1,13.6-3.9c3.3-2.6,4.3-7.4,7.4-9.8c2.4-1.9,6.2-1.5,8.9-3.4
			c15.1-10.6,7.3-35.7-6.3-43.7c12.2-4.7,17-13.9,26.9-20.7c11.7-8.1,25.6-13.5,37.8-20.6c4.7-2.7,10.7-8.4,15.5-4
			c1.8,1.7,4.4,12.6,6.4,15.4c3.3,4.6,7.3,9.5,12.2,12.5c8.9,5.5,19.1,4.6,27.7-1.1c3.2-2.2,4.9-5,8.3-6.4c5.6-2.3,12,0.5,17.9-3.5
			c4.5-3,5.7-8.3,9.6-11.5c4.5-3.7,9.3-2.7,14.6-5.5c8.3-4.5,12.5-15.3,12.8-24.3c0.4-14.2-9.8-32-22.9-36.4
			c-4.2-1.4-8.7-1.3-12.8,0.2c-2.3,0.8-6.9,5.6-9.1,5.6c-7.3,0-5.8-20.5-6.6-27.1c-1.7-13.7-5.7-26.5-7.6-40.2
			c-2.5-18.3-5.3-36.1-9.5-54.1c-2.8-12.2-4.7-24.8-8.3-36.8C1151,441.6,1136.1,401.9,1119.4,388.2z M949.7,740
			C949.4,740.8,949.9,739.3,949.7,740z M1110.6,578.4c3,11.4,6.6,22.5,9.4,34c2,7.9,9.7,26.2,6.9,34.3c-2.7,7.9-18,13.6-25.4,18.2
			c-8.2,5.1-26,20.4-35.9,21.1c-8.3,0.6-17.6-11.9-23-16.9c-8-7.3-15.2-15.2-22.8-22.9c-19-19.5-39.3-38.5-55.2-60.7
			c-17-23.8-28.3-49.8-43.3-74.6c-9.5-15.7,7.2-23.8,19.2-31c16.1-9.8,32.3-19.3,48.3-29.1c2.1,0.6,10.5-7.2,18-11.3
			c9.7-5.2,18.7-9.6,29.8-8.3c10.1,1.2,6.8,0.7,11.7,10.8c5.4,11.1,13.8,20.3,20.8,30.4c7.2,10.4,11.7,21.8,17.1,33.3
			C1096.8,528.5,1104.1,553.6,1110.6,578.4L1110.6,578.4z M1116,436.3c0.3,0.1,0.5,0.2,0.8,0.4
			C1116.5,436.5,1116.3,436.4,1116,436.3L1116,436.3z M1117.7,437.6c-0.2-0.3-0.4-0.5-0.6-0.7
			C1117.7,437.2,1117.9,437.5,1117.7,437.6L1117.7,437.6z M1117.7,437.6C1117.9,437.6,1118.5,437.9,1117.7,437.6L1117.7,437.6z"/>
		<path class="st2" d="M1177.7,593.3c3.4-0.7,6.9-1,10.1-2.1c4-1.5,8.5-2.7,10.4-7.3c0.6-1.5,1.9-1,2.7-1.7c0-0.4,0-0.7,0-1.1
			c0,0.3,0,0.7,0,1.1c0.2,14.2,12.9,27.3,22.8,28.6c6.8,0.9,12.7-0.4,17-6.4c0.8-1.4,2.5-2.2,4.1-1.9c8.4,0.8,16.4-4,19.6-11.8
			c0.6-1.4,1.1-2.4,2.9-2.3c3.4,0.1,6.9-0.5,9-3.2c3.7-4.6,6.9-9.8,6.8-16.1c0-2,0.7-4.1-0.3-6.1c-0.2-3.3-1.2-6.4-2.8-9.2l-1.1-2.1
			c-3.7-4.3-7.2-8.7-12-11.9l-0.7-0.3c-1.2,0.5-1.9-0.5-2.8-1c1.6-6.2,4.8-11.8,5.7-18.2c0.5-3.7,2.3-31.1,1.1-38.6
			c-2.5-16.6-9.4-32.2-20-45.3c-5.7-7.3-13-13.3-21.2-17.5c-1.1-0.6-2.1-1.5-3.5-1.1c-6.4-4-13.5-5.2-20.7-5.4
			c-7.2-0.4-14.4,0.9-21,3.7c-2.7,1.2-2.1-1-2-2.2c0.4-9.6,0.7-19.2,2.5-28.7c2.7-14.7,6.2-29.2,13.5-42.5
			c6.7-12.4,16.6-21.7,27.2-30.5c15.3-12.6,31.8-23.7,46.7-37c16.9-15.1,29.8-32.9,34.9-55.7c1-4.5,1.3-9.2,2-13.8
			c-8-5-16.3-5.6-25.1-2.1c-0.2,1.9-0.1,3.8-0.9,5.7c-0.7,1.5,1.3,3.9-1.5,5.1c-0.5,0.2-2,9.1-3.7,12.2c-3.9,7.3-8.6,14.2-14.1,20.4
			c-4.9,5.6-11.3,9.6-15.4,15.9c-0.4,0.5-1,0.9-1.6,1.1c-9.4,5.4-17.3,13-25.7,19.7c-5.9,4.7-12.2,8.9-18.1,13.4
			c-6.9,5.2-12.8,11.5-19.3,17.1c-9.9,8.6-17.4,19.6-21.9,31.9c-1.2,3-2.9,6-2.7,9.4c0,0.3,0,0.7,0,0.7c-5.3,1.7-3.8,7.1-5.3,10.7
			c-3.7,9-1.9,16.6-4.2,26c-2.9,12,2.4,26.8,2.2,28.7c-6.2-5.4-12-11.5-18.3-16.6c-0.7,1.5,0.5,2.5,1.1,3.4
			c3.4,5.7,7.4,10.7,9.8,16.9c3.2,8,5.8,16.3,7.9,24.6c2.5,10.4,5.3,20.7,7.5,31.2c2.5,11.8,5.6,23.4,7.4,35.3
			c0.2,1.2,0.4,2.3,0.6,3.4c0.9,4.9,3,15.7,3.5,19c1.7,10.7,3.1,21.5,4.5,32.3c0.5,3.7,0.8,7.4,1.1,11.1
			C1176.1,583.9,1176.4,590.4,1177.7,593.3z M1268.3,512.4l0.4,0.1c-0.1,0-0.2,0-0.3,0C1268.5,512.5,1268.4,512.4,1268.3,512.4
			L1268.3,512.4z"/>
		<path class="st3" d="M1267.7,505.9l-0.3-0.2L1267.7,505.9z"/>
		<path class="st3" d="M1268.8,512.5l-0.4-0.1c0.1,0,0.1,0.1,0.1,0.1C1268.6,512.5,1268.7,512.5,1268.8,512.5L1268.8,512.5z"/>
		<path class="st4" d="M802.7,397.3l1-0.4L802.7,397.3z"/>
		<path class="st3" d="M1118.8,605.6c-2.6-7.6-4.4-15.5-6.5-23.3c-3.3-12.8-7-25.5-11.1-38c-2.2-6.5-5.1-12.9-6.4-19.5
			s-5.5-11.3-7.7-17.2s-5.3-11.8-7.9-17.7c-5.2-11.8-13.5-21.3-20.8-31.5c-4.8-6.8-10-13.6-12.2-22c-0.6-2.4-2.3-4.4-3.6-6.6
			c-0.6-1.3-2-1.9-3.3-1.6c-3,0.9-5.9,0.5-8.9-0.1c-2.2-0.4-4.5,0.1-6.4,1.4c-9.5,6.4-19.9,11-29.7,16.9
			c-11.8,7-60.8,38.2-71.2,43.7c-2,1-3.6,2.8-4.3,5c-1,2.9-2,5.7-4.2,8c-0.9,1-1.1,2.6-0.3,3.7c1.3,2.2,2.2,4.7,3.9,6.4
			c6.1,6.1,9.4,14,12.8,21.7c5.2,11.6,9.2,23.6,16.8,34c3.8,5.2,7.2,10.8,11.3,15.7s6,10.9,10.9,15.3s9,10.1,13.5,15.2
			c8.7,9.8,17.8,19.2,27,28.5c5.7,5.6,11.5,11.1,16.7,17.2c2.3,2.7,8.4,8.6,10.4,10.4c6.4,5.9,12.7,11.7,19.3,17.4
			c6.9,6,48.2-18.7,56.5-23.7c1.4-0.7,2.8-1.6,4.1-2.5c1.4-0.7,2.8-1.6,4.2-2.5c7.9-4.8,8.7-5.2,6.9-14.3
			c-1.7-8.6-3.6-17.1-5.5-25.7C1122.7,617,1120,609,1118.8,605.6z"/>
		<path class="st3" d="M1254.2,596.5c-3.4,2.2-11.2,2.8-13.3-0.8l-7.8-8.6c-2-3.6-5.7-11.1,5.4-17.8c9-5.4,15.3,0.6,17.3,4.2
			l4.1,10.8C1261.9,588,1258.8,593.6,1254.2,596.5z"/>
		<path class="st3" d="M1235.2,605.3c-3.2,2.6-9.9,3-13.3,0.7c-3.1-2.3-6-4.9-8.7-7.7c-2.4-3.3-6.8-10.4,3.5-18.3
			c8.4-6.4,7.9,4.5,10.3,7.8c0,0,1.8,8,5.2,10.3S1239.5,601.8,1235.2,605.3z"/>
		<path class="st3" d="M1270.6,584c3.7-1.6,7.4-7.4,7.1-11.5c-0.5-3.9-1.3-7.7-2.3-11.5c-1.7-3.8-5.6-11.2-17.3-5.8
			c-9.5,4.4,0,9.3,1.6,13c0,0,5.9,5.5,6.3,9.7S1265.6,586.2,1270.6,584z"/>
		<path class="st3" d="M1198,425.8c1.4-0.3,2.8-0.7,4.3-0.9s2.9-0.4,4.4-0.6c3-0.3,6-0.2,8.9,0.3c1.5,0.2,3,0.5,4.4,0.9
			c4.4,1.2,8.7,3.1,12.5,5.7c5,3.5,9.4,8,12.8,13.1c3.4,5,6.1,10.4,8.1,16.1c0.6,1.4,1,2.8,1.4,4.2s0.9,2.9,1.3,4.3l1,4.3
			c0.2,0.7,0.3,1.4,0.5,2.2l0.4,2.2l0.7,4.4c0.3,1.5,0.3,2.9,0.5,4.4l0.5,4.4l0.2,4.4c0.6,11.6-0.1,23.3-2,34.7
			c-1.3-11.5-2.3-22.9-4-34.1l-0.6-4.2l-0.8-4.2c-0.3-1.4-0.5-2.8-0.8-4.1l-0.9-4.1l-0.4-2c-0.2-0.7-0.4-1.4-0.5-2l-1.1-4
			c-0.4-1.3-0.8-2.6-1.2-4l-0.6-2c-0.2-0.7-0.5-1.3-0.7-1.9c-0.5-1.3-0.9-2.6-1.4-3.9l-1.7-3.8c-0.5-1.3-1.2-2.4-1.8-3.6
			s-1.3-2.4-2-3.5c-2.8-4.6-6.3-8.7-10.3-12.2c-0.5-0.5-1-0.8-1.6-1.2s-1-0.9-1.6-1.2c-1.1-0.7-2.2-1.5-3.4-2.1
			c-2.4-1.3-4.9-2.4-7.5-3.2c-2.7-0.8-5.4-1.5-8.2-1.8C1203.8,426,1200.9,426,1198,425.8z"/>
		<path class="st3" d="M1029.5,316.2c1.9-0.2,3.7-0.2,5.6,0.1c1.9,0.2,3.7,0.5,5.5,0.9c3.6,0.9,7.2,2,10.7,3.5
			c6.9,3,13.5,6.6,19.6,11c6.1,4.3,12,9,17.5,14.1c5.5,5.1,10.7,10.4,15.7,16c9.8,11.4,18.5,23.6,26,36.6
			c3.8,6.5,7.3,13.1,10.5,19.8c0.8,1.7,1.6,3.4,2.4,5.1s1.6,3.4,2.3,5.1c1.5,3.4,3,6.9,4.3,10.3c2.8,6.9,5.3,13.9,7.7,21
			s4.6,14.2,6.5,21.4c1,3.6,1.9,7.2,2.8,10.8s1.7,7.2,2.6,10.8c1.6,7.3,3,14.5,4.3,21.8c5.1,29.2,7.9,58.7,8.4,88.4
			c-3.6-29.3-7.9-58.5-14.2-87.3c-3.2-14.4-6.7-28.6-10.9-42.6l-1.6-5.3l-1.7-5.2c-1.1-3.5-2.3-7-3.4-10.4
			c-2.4-6.9-4.9-13.8-7.7-20.5c-5.4-13.5-11.8-26.7-18.9-39.4c-3.6-6.3-7.4-12.6-11.5-18.6s-8.4-11.9-13-17.5s-9.4-11.1-14.6-16.3
			c-2.6-2.6-5.2-5.1-7.8-7.6s-5.4-4.9-8.3-7.1c-1.4-1.1-2.9-2.2-4.3-3.3l-2.2-1.6l-2.2-1.5c-3-2.1-6.1-3.9-9.3-5.6
			c-3.2-1.7-6.6-3.2-10-4.4C1036.8,317.2,1033.2,316.4,1029.5,316.2z"/>
		<path class="st3" d="M1150.9,421.9c-1.5-5.5-2.4-11.1-2.9-16.8c-0.5-5.7-0.5-11.5-0.2-17.2c0.4-5.7,1.2-11.5,2.3-17.1
			c1.2-5.7,2.8-11.2,4.9-16.7c1-2.7,2.1-5.4,3.3-8s2.6-5.2,4-7.8c2.9-5.1,6.1-9.9,9.7-14.5c3.6-4.6,7.5-8.9,11.7-13
			c4.2-4,8.8-7.7,13.2-11.2c8.9-7.1,17.8-14,26.7-20.9c9-6.9,17.8-13.9,26.3-21.1c4.2-3.7,8.3-7.5,12.1-11.5
			c3.8-4,7.3-8.3,10.3-12.9c3-4.6,5.5-9.7,7.2-14.9c1.8-5.3,3-10.8,3.7-16.4c0.1,5.7-0.5,11.4-1.7,17c-1.3,5.7-3.3,11.1-6,16.2
			c-5.5,10.3-13.4,19-21.6,26.9c-4.1,4-8.4,7.8-12.7,11.5c-4.3,3.7-8.7,7.3-13.1,10.9c-8.8,7.2-17.6,14.2-26.4,21.3
			c-4.5,3.6-8.8,6.9-12.7,10.7c-4,3.7-7.8,7.8-11.3,12c-3.5,4.2-6.7,8.7-9.6,13.4c-1.4,2.4-2.8,4.8-4,7.2s-2.5,4.9-3.6,7.4
			c-4.4,10.2-7.4,20.9-9,31.9c-0.8,5.5-1.3,11.1-1.5,16.7c-0.1,2.8-0.1,5.6,0,8.4C1150.3,416.3,1150.5,419.1,1150.9,421.9z"/>
		<path class="st5" d="M1286.9,204.1c-1.3-0.1-2.3,0.7-3.3,1.1l-1.4-2.4c-0.5-1-1-1.9-1.4-2.9c-0.3-0.7-0.6-1.4-0.9-2.1
			c-9.7-20.3-6.8-41.4,7.8-58.7c4.3-5.1,9.2-9.7,14.6-13.7c17.2-12.5,36-20.2,57.2-21.3c0.7,0,1.8-0.7,2.2,0.8
			c-4.8,3-9.3,6.5-13.3,10.5c0.5,0.2,0.8,0.4,0.9,0.3c0.5-0.2,0.9-0.4,1.3-0.7c9.9-5.5,21.3-7.9,32.5-6.8c4.6,0.4,8.8,2.4,13.4,2.6
			l0.4,0.7c-5,2.7-9.9,5.4-14.1,9.3c-13.6,12.6-24.4,27.1-29.1,45.7c-1.1,4.3-3.2,8.3-5.9,11.8c-9.7,12.5-24.7,21.5-38.6,28.1
			C1301.3,201.8,1295.4,200.6,1286.9,204.1z"/>
		<path class="st6" d="M1284.4,189.7c-2.2-8.5-2.2-17.4,0.1-25.9c1.1-4.3,2.7-8.4,4.8-12.3c2.1-3.9,4.6-7.5,7.5-10.9
			c5.8-6.6,12.6-12.2,20.3-16.6c7.5-4.4,15.6-7.8,23.9-10.2c-2,0.9-4,1.8-6,2.6c-2,0.9-3.9,1.9-5.8,2.8l-5.7,3
			c-1.8,1.1-3.7,2.1-5.5,3.3s-3.6,2.3-5.3,3.6l-2.6,1.9l-2.5,2l-1.2,1l-1.2,1.1c-0.8,0.7-1.6,1.4-2.3,2.2l-2.2,2.3
			c-0.8,0.8-1.4,1.6-2.1,2.4c-5.6,6.4-9.8,14-12.3,22.1c-1.2,4.1-2,8.3-2.3,12.6C1283.5,181,1283.7,185.4,1284.4,189.7z"/>
		<path class="st2" d="M1108.3,75.6c-2.6-7.7-7-14.3-11.9-20.5c-9.8-12.5-21.9-22-36.6-27.7c-1.3-0.5-9.9-2.9-9.9-2.9
			c-0.5,0.2-5.8-1.3-8.1-1.8c-19.5-1.7-38.5,0.1-56.4,8.8s-30.7,22.8-39.5,40.8c-3.2,6.4-5.8,13-7.6,19.9c-0.4,1-0.9,1.9-1.5,2.7
			c-2.2-1.3-4.5-2.3-7-2.8l-1-0.2l0,0c-8.7-4.8-18.2-6.5-27.8-8.2l-4-0.7l0,0l-8.6-1c-16.9-2.6-33.5-0.6-49.9,3.8
			c-21.9,5.7-42.6,15.1-61.4,27.7c-10.2,6.9-18.8,15.7-26.2,25.6c-6.9,9.1-13.9,18-20,27.6c-0.1,1.2-0.4,2.5-0.9,3.6
			c0.4-1.2,0.7-2.4,0.9-3.6c-3.4,4.9-3.4,4.9-8.8,1.6c-14.5-8.9-29.9-15-46.9-15.6c-20.2-0.7-38.3,5.6-54.3,18.1l-1.1,0.8
			c-1-0.1-1.5,1.4-2.6,0.8l-7.3,7l-4.5,4.3c-0.9,3.4-3.6,5-6.1,7l-1.1,1.3c-0.1,1.2-1,1.8-1.8,2.5l-1.3,2.2c0.1,1.3-0.9,1.9-1.6,2.7
			c-1,1-1.7,2.2-2,3.6c0.3,1-0.1,1.6-1,1.9l-0.6,1c0.2,0.6,0,1.4-0.7,1.7c-0.2,0.2-0.3,0.4-0.4,0.6c0.8,1.4-0.1,2.1-1.2,2.7
			l-1.1,2.8c0.4,0.7,0.2,1.5-0.4,2c0,0-0.1,0.1-0.1,0.1c-0.8,1.3-1.2,2.8-1.2,4.3c0,0.2-0.1,0.4-0.2,0.5c-1.6,3.9-2,8.1-2.5,12.2
			c-3.3,27.8,4.6,52.2,22,73.3c16,19.4,36.3,30,61.5,30.1c16.8,0,32.4-5.2,47.4-12.3c2.2-1,2.9-0.8,3.1,1.5
			c1.7,18.4,9.4,34.3,19.6,49.2c0.3,0.1,0.4,0.3,0.5,0.5c0.6,0.9,3,3.9,3.7,4.7c2.4,2.8,5.1,5.3,8,7.5c2.4,2,4.1,2.7,5.8-0.9
			c1.3-2.9,3.7-5.1,6.1-7.5c0.8,1.5,1.5,2.8,2.2,4c3,5.4,6.8,9.9,12.4,12.8c2,1,2.9,0.8,3.7-1.5c1-2.5,2.1-5,3.3-7.4
			c5.5-23.6,26-44.3,47.5-55.1l0,0h1.8h-0.1l1.2,0.2c4.1-2.5,8.8-2.6,13.3-3.5c3.7-0.8,7.7-0.5,11.1-2.6c-6.3-5.4-6.1-16.3,1.9-15.1
			c36.9,5.3,60.8-19.9,62.1-20.5c8.1-3.5,12.8-0.2,12.5,8.8c0,0.4,0,0.8,0,1.1c0.2,0.1,0.5,0.1,0.7,0.1c6.8-5.6,14.4-10.1,22.6-13.3
			c4.3-3.3,24.6-8.5,33.3-8.1c11.1,0.5,21.7,2.7,31.5,8.4c3.8,2.2,7,5.1,10.6,7.4c2,0.9,3.9,1.9,5.7,3.1c2.1,1.5,1.3-0.6,2.2-3.1
			c1.7-4.9,2.7-10.1,2.9-15.3c-0.9-0.8-1.1-1.6,0.1-2.8c0.1-0.2,0-0.3-0.2-0.4c-0.7-0.8-2.6-0.6-2.3-2.1c0.3-0.9,1.1-1.7,2.1-2
			c1-0.3,1,1.2,1.6,1.8l1.5,0.1c0.8-0.4,0.6-2.1,1.9-1.8c0.3,0.1,0.2,1.6,0.3,2.4c5.4,0.9,7.8-1.6,9.9-6.4c0.1-0.5,0.1-1,0.1-1.5
			c0.6-1,0.6-2.2,0.2-3.3l0,0l0.2-3.3l-0.1-1.1v0c0.4-2.4,0.8-4.8-0.4-7.1c-0.1-0.9-0.2-1.7-0.3-2.6c0.5-7.4-1.7-14.3-3.7-21.2
			c-2.3-8.2-5.9-16.1-10.6-23.2c-1.3-2-1-2.8,1.3-3.4c7.1-1.7,14-4.1,20.6-7.2c19.1-9.1,34.8-22,44.1-41.8c0.7-1.5,1.7-3,1.7-4.7
			c8.3-22.6,7.9-45.1-0.3-67.5C1109.8,78.5,1109.2,76.9,1108.3,75.6L1108.3,75.6z M618.7,173.6c-1.5,0.5-2.9,1.4-3.9,2.7
			C615.8,175,617.2,174.1,618.7,173.6z M621.6,170.8c0.5-0.1,1-0.3,1.4-0.6C622.5,170.5,622.1,170.7,621.6,170.8L621.6,170.8z
			 M624.4,169.5c0.2-0.1,0.4-0.2,0.7-0.2C624.8,169.3,624.6,169.4,624.4,169.5L624.4,169.5z M725.5,314.7L725.5,314.7L725.5,314.7z
			 M715.8,289.4l-0.6-0.3C715.2,288.9,715.8,289.2,715.8,289.4z M787.6,152.8c0,0-0.1-0.2-0.1-0.3
			C787.5,152.6,787.6,152.7,787.6,152.8L787.6,152.8z M984,263.8c0-0.1-0.1-0.3-0.2-0.4C984,263.5,984,263.6,984,263.8L984,263.8z
			 M1029.5,248.7c0.2-0.1,0.4-0.4,0.6-0.6C1029.9,248.3,1029.7,248.6,1029.5,248.7L1029.5,248.7z M1034.1,230.6
			c0.5,0.5,1.1,0.9,1.8,1.1C1035.2,231.5,1034.6,231.1,1034.1,230.6L1034.1,230.6z M1038.8,233.9c-0.1-0.3-0.2-0.6-0.4-0.9
			C1038.5,233.2,1038.7,233.5,1038.8,233.9L1038.8,233.9z M1049.9,227.2c-0.6-1.5-1.1-3-1.8-4.4
			C1048.8,224.2,1049.3,225.7,1049.9,227.2L1049.9,227.2z M1074.2,184.8L1074.2,184.8c0.1-0.2,0.2-0.4,0.3-0.7
			C1074.4,184.4,1074.3,184.6,1074.2,184.8z M1079.5,157.8c0-0.1,0-0.3,0-0.4C1079.6,157.6,1079.6,157.8,1079.5,157.8L1079.5,157.8z
			 M1079.7,152.6L1079.7,152.6c0-0.1,0-0.3,0.1-0.4C1079.8,152.3,1079.8,152.5,1079.7,152.6L1079.7,152.6z M1083.6,147.7
			L1083.6,147.7c0.1-0.2,0.1-0.4,0.2-0.5C1083.8,147.3,1083.7,147.5,1083.6,147.7L1083.6,147.7z M1106,154.3c0.1-0.1,0-0.3-0.1-0.4
			C1106,154,1106.1,154.2,1106,154.3z M1106.4,150.4c0.6-0.5,1.2-1,1.8-1.5C1107.6,149.4,1107,149.9,1106.4,150.4L1106.4,150.4z"/>
		<path class="st3" d="M916.9,293.6c-0.4,0-0.3-8.3-2.9-14.4c-3.8-9-20-26.5-30.3-26c-15.4,0.6-18,17.6-19,30.2
			c-0.5,5.9,4.3,23.7,2.8,26.1C885.9,308.5,902.6,308,916.9,293.6z"/>
		<path class="st5" d="M954.3,136.7c-3.5-3.8-7.7-7-12.4-9.3c-13.2-7.1-27.4-9.5-42.2-8.4c-2.2,0.2-6-0.4-5.8,2.7s3.7,2.9,6.3,2.6
			c14.2-1.4,27.8,1.1,41,6.3C945.3,132.2,949.4,134.4,954.3,136.7z"/>
		<path class="st5" d="M733.4,218.3c3.1-5.5,5.4-11.4,8.6-16.9c6.5-11,15.1-19.9,25-27.6c2.1-1.6,5.4-3.9,3.5-6.3
			c-2.1-2.6-4.6,0.8-6.6,2.4c-7.5,5.7-14.3,12-19.5,20.1C738.7,198.6,734.4,207.8,733.4,218.3L733.4,218.3z"/>
		<path class="st4" d="M962.1,193.1l-1.4-1c-0.2,1.9-0.3,3.9-0.6,5.8c-1.2,7.8-2.6,15.5-7.4,22.1c-7.1,10-17.1,12.9-28.5,13
			c-5.8,0-11.3-1.6-17-1.6c13.7,6,27.8,9.8,42.9,6.3c11.9-3.9,18.9-12.5,22.3-24.5c0.3-0.7,0.7-1.4,1.2-2c1.4-6,2-12.2,1.9-18.4l0,0
			c0-0.6,1.4-18.6-4.3-24c-5.2-4.9-10.4-9.7-16-14.1l0,0l-8.7-6.2c-7.5-5.4-15.6-9.2-24.9-10.2c-4.1-0.4-8.2,0.3-11.8,2.2l-2.5,1.7
			c-8.6,7.4-11,17.8-12.8,28.4c-1.6,9.6-1,19.4-1.3,29.1c0.1,0.9,0.4,1.7,0.8,2.5c1.2-6.1,2.8-12.1,4.7-18
			c3.9-12.1,10.7-21.3,24.1-23.3c0.9,0,1.9-0.1,2.8-0.2l0,0c2.9,0.4,5.8,0.7,8.7,1.2c8.8,1.4,16.3,6.4,24.4,9.8
			c1.5,0.6,1.5,2,1.6,3.3c0.2,5.1,0.3,10.1,0.4,15.2l0,0v1.6"/>
		<path class="st4" d="M974.8,189.3L974.8,189.3L974.8,189.3z"/>
		<path class="st5" d="M960.6,191.8v0.2l0.1,0.1c-0.2,1.9-0.3,3.9-0.6,5.8c-1.2,7.8-2.6,15.5-7.4,22.1c-7.1,10-17.1,12.9-28.5,13
			c-5.8,0-11.3-1.6-17-1.6c-3.2-1.1-6.5-2.1-9.8-2.9c-2.8-0.6-3.6-2.1-3.7-4.8c-0.1-5.8-0.4-11.6-0.6-17.4c0.8-0.8,1.1-2,0.8-3.1
			v0.1c0-0.4,0-0.8,0-1.2v0.1c1.2-6.1,2.8-12.1,4.7-18c3.9-12.1,10.7-21.3,24.1-23.3l1.1-0.1l1.7-0.1c2.9,0.4,5.8,0.7,8.7,1.2
			c8.8,1.4,16.3,6.4,24.4,9.8c1.5,0.6,1.5,2,1.6,3.3c0.2,5.1,0.3,10.1,0.4,15.2L960.6,191.8z M897.6,196c-2.1,9.1-1.9,18.3-1.4,27.6
			c-0.1,1.3,0.8,2.5,2.1,2.7c10.4,2.7,20.7,5.2,31.6,4.2c13.1-1.2,21.2-8.6,25.3-20.9c3.7-10.9,3.5-22.3,2.9-33.6
			c0.1-1.2-0.6-2.3-1.8-2.6c-11.8-4.6-23.9-7.4-36.6-4.1c-4.3,1.1-8.2,3.3-11.4,6.3C902,181.6,899.3,188.5,897.6,196L897.6,196z"/>
		<path class="st4" d="M919.8,169.1c12.7-3.3,24.8-0.6,36.6,4.1c1.1,0.4,1.8,1.5,1.8,2.6c0.7,11.4,0.8,22.7-2.9,33.6
			c-4.1,12.3-12.2,19.7-25.3,20.9c-10.9,1-21.3-1.5-31.6-4.2c-1.3-0.2-2.2-1.4-2.1-2.7c-0.5-9.2-0.7-18.5,1.4-27.6
			c1.7-7.4,4.4-14.4,10.8-20.5C911.6,172.4,915.5,170.2,919.8,169.1z"/>
		<path class="st5" d="M946.5,184c-1.6,4.3-0.3,6.2,4.4,6.6c0.2,0.3,0.4,0.6,0.6,1c2.7,10.1-1.3,21.9-10,28c-11,7.8-20.4,6.4-29.3,1
			c-9.3-5.5-13.3-14.6-12.1-25.5c1.2-10.7,7-18.4,16.9-22.1c11.7-4.4,21.8-0.9,30,8.5C947.5,182.5,946.8,183.2,946.5,184z
			 M935.3,178.9c-2.1-2-5.4-2.1-7.6-0.2c-2.2,2.2-2.3,5.7-0.3,8.1c2.1,2.1,5.4,2.1,7.5,0.1C937.2,184.7,937.4,181.2,935.3,178.9
			L935.3,178.9z"/>
		<path class="st4" d="M934.9,186.8c2.3-2.1,2.5-5.6,0.4-7.9c0,0,0,0,0,0c-2.1-2-5.4-2.1-7.6-0.2c-2.2,2.2-2.3,5.7-0.3,8.1
			C929.4,188.8,932.8,188.9,934.9,186.8z"/>
		<path class="st4" d="M765.9,261.9l-1-1.2l0,0c-2.9-4.1-5.9-8.1-8.8-12.3c-0.7-1-1.5-2.1-0.7-3.6c4.4-7.8,7.4-16.4,13.5-23.1
			c2-2.2,4.1-4.3,6.2-6.4l0,0c0.8-0.5,1.6-1,2.3-1.6c11.8-6.8,22.6-3.8,32.9,3.4c5,3.5,9.9,7.3,14.5,11.3c-0.2-0.9-0.5-1.7-0.9-2.5
			c-6-7.5-11.4-15.6-18.4-22.2c-7.7-7.3-15.8-14-27-14.5l-3,0.2c-4,0.8-7.7,2.8-10.6,5.6c-6.7,6.6-10.8,14.7-13.6,23.7
			c-1.1,3.4-2.1,6.9-3.2,10.4l0,0c-1.8,7-3.1,14.1-4.3,21.2c-1.3,7.9,10.5,21.3,10.9,21.7l0,0c3.6,5,7.7,9.5,12.4,13.4
			c0.7,0.2,1.4,0.5,2.1,0.9c9.8,7.4,20.4,9.8,32.2,5.5c14.1-6.7,23-18.5,30.3-31.9c-4.5,3.6-7.9,8.4-12.5,12
			c-9.1,7-18.8,11-30.3,7.5c-7.7-2.3-13.4-7.5-19-12.9c-1.4-1.3-2.6-2.8-3.9-4.2c-0.2,0.5-0.3,1.1-0.5,1.7"/>
		<path class="st4" d="M753.2,268.8L753.2,268.8L753.2,268.8z"/>
		<path class="st5" d="M765,260.7c-2.9-4.1-5.9-8.1-8.8-12.3c-0.7-1-1.5-2.1-0.7-3.6c4.4-7.8,7.4-16.4,13.5-23.1
			c2-2.2,4.1-4.3,6.2-6.4l1.4-1l1-0.6c11.8-6.8,22.6-3.8,32.9,3.4c5,3.5,9.9,7.3,14.5,11.3l-0.1-0.1l0.8,0.9l0-0.1
			c0.5,1,1.2,1.9,2.5,2c3.3,4.7,6.5,9.5,9.8,14.1c1.6,2.1,1.9,3.9,0,6.1c-2.2,2.6-4,5.6-6,8.4c-4.5,3.6-7.9,8.4-12.5,12
			c-9.1,7-18.8,11-30.3,7.5c-7.7-2.3-13.4-7.5-19-12.9c-1.4-1.3-2.6-2.8-3.9-4.2V262l-0.2-0.1L765,260.7z M797.6,216.3
			c-4.4-0.4-8.8,0.3-12.8,2.1c-12.1,5.3-19.9,15-26.6,26.1c-0.7,1-0.6,2.3,0.2,3.2c6.2,9.4,12.9,18.5,22.3,24.8
			c10.6,7.2,21.4,7.9,32.5,0.7c9.3-6,16-14.5,22.6-23.1c0.9-1,1-2.5,0.1-3.5c-5.1-7.6-10.4-15-17.5-20.9
			C812.5,221,806.3,217.1,797.6,216.3L797.6,216.3z"/>
		<path class="st4" d="M797.6,216.3c8.7,0.9,15,4.7,20.8,9.5c7.1,5.9,12.4,13.3,17.5,20.9c0.9,1,0.8,2.5-0.1,3.5
			c-6.6,8.6-13.3,17.1-22.6,23.1c-11.1,7.2-21.9,6.5-32.5-0.7c-9.4-6.4-16.1-15.4-22.3-24.8c-0.8-0.9-0.8-2.2-0.2-3.2
			c6.7-11.1,14.5-20.8,26.6-26.1C788.8,216.6,793.2,215.9,797.6,216.3z"/>
		<path class="st5" d="M770.6,245.2c0.9-12.6,6.8-21.6,18.7-25.5c10-3.3,19.2-0.8,26.5,6.9c7.5,7.9,9.6,17.6,5.6,27.8
			c-3.9,9.9-10.5,16.8-23.9,17.5c-10.5,0.5-20.7-6.3-24.5-16c-0.1-0.4-0.1-0.8-0.1-1.1c3.6-3.3,3.4-5.6-0.4-8
			C771.8,246.5,770.8,246.3,770.6,245.2z M783.3,241.9c2.9,0.3,5.6-1.9,5.9-4.8c0.3-3-2.2-6.1-5.1-6.2c-2.9-0.1-5.5,2-5.9,4.9
			c-0.3,3,1.8,5.7,4.8,6C783.2,241.8,783.3,241.9,783.3,241.9L783.3,241.9z"/>
		<path class="st4" d="M783.3,241.9c-3-0.2-5.2-2.9-5-5.9c0,0,0-0.1,0-0.1c0.4-2.9,3-5,5.9-4.9c2.8,0.1,5.3,3.2,5.1,6.2
			C788.9,240,786.3,242.1,783.3,241.9z"/>
		<path class="st4" d="M1050.2,219.5c1.5,6.5,4.7,16,4.8,19.7c0.1,3.2-0.4,5-4.2,4.2c-3.1-0.7-6.2-0.1-9.5,0.5
			c0.7,1.6,1.3,2.9,1.8,4.2c2.3,5.7,3.6,11.6,2.4,17.9c-0.4,2.2-1.1,2.9-3.4,2.1c-2.6-0.7-5.2-1.3-7.8-1.8l0,0
			c-21.7-9.8-46.9-5.7-63.5,2.5c-4.4,2.2-20.6,13.4-29.2,21.7c-12.3,11.9-27.3,34.5-28.5,36.6c-4.5,8.3-12.2,11.7-20.6,7.9
			c-2.9-1.3-5.9-2.4-9-3.2c-8.9-2.7-18.4-3.2-27.2-6.4c-3.5,2.1-7.4,2-11.2,2.6c-6.7,1-21.2,5.2-23.5,6.5
			c-21,11.8-34.7,28.2-40.2,51.9l0,0c-1.2,2.4-2.3,4.9-3.3,7.4c-0.8,2.3-1.7,2.4-3.7,1.5c-5.6-2.8-9.4-7.4-12.4-12.8
			c-0.7-1.2-1.3-2.5-2.2-4c-2.4,2.4-4.8,4.6-6.1,7.5c-1.7,3.6-3.3,3-5.8,0.9c-2.8-2.3-9.1-9.5-13.3-14.6c0.1,2.9,0.5,8.7,4.2,18.8
			c3.7,7.3,8.2,14.1,14.2,19.1c1.8-3.3,3.3-6.7,4.7-10.1c0.3-0.9,0.7-1.8,1.6-2s1,0.5,1.3,1.1c2.2,4.2,6.7,5.3,10.3,7.8
			c5.3,3.7,9.2,2,12.8-2.5c0.5-0.6,1.1-1.2,1.7-1.5c1.4-0.7,3-1.3,4.3-0.3c3.5,2.7,7.5,4.1,11.5,5.7c16.3,6.4,32.4,4.5,48.4-0.9
			c3.5-1.2,5.7-1,7.4,2c3.3,6,7.7,11.2,13.2,15.4c5.8,4.4,12.6,7.6,19.8,9.2c4.5,1,9.3,0.8,13.9,1.1c0.8-0.7,1.9-0.9,2.9-0.7
			c7.3,0.2,14.7-0.5,21.8-2.2c1-0.2,1.9-0.5,2.9-0.7c0,0.2,0.1,0.3,0.1,0.5c1.5,0.4,3.2-0.2,4.6,0.8c6.3-0.8,12.6-1,18.7-3.1
			c9.7-3.5,18.7-8.8,26.4-15.7c5.6-4.9,10.6-10.4,14.9-16.5c0.6-0.9,1.2-1.7,2.3-1.9c2.5-4,5.5-7.8,7.5-12
			c3.1-6.8,4.7-14.2,4.8-21.6c0-6.9-1.3-13.7-4-20c-1.3-3.2-0.1-5.1,2.9-7.2c13.9-9.7,25.1-21.8,30-38.9c1.2-4.3,2.5-8.4,2.5-12.8
			c0-1.7,1.5-2.6,2.8-3.4c0.7-0.3,1.5-0.5,2.2-0.5c5.7-0.2,7.8-2.6,9.7-8.9c0.9-3.2,3.4-8.1,1.4-12.5c-0.3-0.6-0.7-1.2-0.1-1.7
			c0.8-0.5,1.7-0.5,2.5-0.1c3.1,0.8,6.2,1.4,9.4,1.8c-0.3-8-2.9-15.7-6.3-23.1C1060.4,228.6,1055.7,223.5,1050.2,219.5z"/>
		<path class="st5" d="M915.3,290.6c1.4,0,2.2-1.1,3.2-1.9c1.3-0.6,2.6-1.2,3.9-1.8c8.3-3.6,13.1-0.2,12.9,9.1c0,0.4,0,0.8,0,1.2
			c-1.7,6.6-7.3,10.3-11.3,15.2c-2.5,2.8-5.4,5.3-7.2,8.8c-1.7,1.8-3.2,4-4.2,6.3c-4.6,8.5-12.8,11.5-21.5,7.6
			c-3-1.3-6.1-2.4-9.3-3.3c-9.2-2.7-18.9-3.3-28-6.6c-6.5-5.6-5.6-12.1,2-15.5c2.8-1.3,5.8-1.6,8.7-2.4c1.4-0.2,2.8-0.2,4.2-0.2
			c9.8,1.1,19.8-0.4,28.8-4.5c6.6-2.9,12.7-6.5,17.8-11.6L915.3,290.6z"/>
		<path class="st6" d="M906.4,307.8c1-1.6,2.2-3,3.5-4.3c0.6-0.7,0.6-1.8,0-2.5c-0.6-0.8-1.4-0.5-2.1-0.2c-1.6,0.8-3.1,1.7-4.7,2.6
			c-7.3,4.1-15.2,6.8-23.5,8.1c-1.1,0.2-2.6-0.2-2.6,1.4c0.1,1.4,1.2,2.4,2.5,2.5c4.8,0.6,9.6,1.1,14.4-0.1S902.3,311.2,906.4,307.8
			z"/>
		<path class="st7" d="M865,337.7c-1.5-0.7-3.1-1-4.7-0.9c-0.8,0-1.5,0-2.3-0.1c-0.8-0.1-1.5-0.4-2.3-0.6c-0.9-0.2-1.8-0.2-2.6,0.1
			c-0.8,0.3-1.4,1-2.2,1.4c-1.3,0.7-2.7,1.1-4.2,1.1c-2.9,0.1-5.6-1-8.3-1.8c-3.8-1-7.6-1.8-11.5-2.4c-2.4-0.4-4.7-0.8-7.1-1.2
			c-1.2-0.2-12.2-0.9-14.8-1c-2.4-0.1-4.9-0.2-7.3-0.2c-4.9,0.1-9.8,0.5-14.6,1.2c-0.7,0.1-6.2,1.6-6.5,1.8
			c6.6-0.3,13.2-0.6,19.7-0.8c3.2-0.1,6.4,0,9.6,0.3c8.7,0.7,17.5,1.3,25.9,3.6c2.8,0.7,5.5,1.8,8.1,3.1c0.8,0.4,1.8,1,2.1,1.9
			c0.1,0.7,0,1.4-0.4,2c-1.1,2.5-3,4.4-5.4,5.6c-2.7,1.2-5.7,1.7-8.5,2.5c-12.3,3.6-24,9.3-34.5,16.7c-5,3.6-10.2,7.1-14.1,12
			c-0.1,0.1-0.7,0.8-0.6,0.9c1.9-1.4,3.8-2.8,5.7-4.2c1.8-1.3,3.5-2.8,5.3-4c3.7-2.6,7.6-4.8,11.5-7.1s7.6-4.5,11.7-6.4
			c4-1.8,8.2-3.4,12.4-4.7c3.4-1.1,7-2.4,10.6-2.5c3.3-0.2,6.5,0.9,9,3c0.7,0.5,0.8,1.4,0.3,2.1c0,0,0,0,0,0
			c-1.1,1.3-2.3,2.5-3.6,3.5c-3.1,2.8-6.1,5.8-8.9,9c-3,3.5-5.7,7.3-8.1,11.3c-2.2,3.6-4.3,7.1-5.2,11.3c4.1-4.2,6.5-9.6,9.8-14.3
			c1.9-2.8,4-5.4,6.1-7.9c2.1-2.6,4.4-5,7-7.1c2.7-1.9,5.5-3.7,8.3-5.3c0.7-0.4,1.3-0.8,2-1.2c0.5-0.4,1.1-0.6,1.8-0.6
			c0.6,0.1,1.2,0.3,1.7,0.6c0.6,0.2,1.3,0.3,1.9,0.3c2.2,0.1,4.4-0.9,5.8-2.7c0.9-1.1,1.6-2.2,2.2-3.4c0.6-1.1,0.3-2.4,1.2-3.3
			s2.5-0.8,3.6-1.7c0.8-0.7,1.1-1.9,0.9-2.9c-0.4-1.3-1.2-2.6-2.2-3.5C868.1,339.7,866.6,338.6,865,337.7z M852,349.4
			c-0.7-1.9,1.5-4,2.9-2.2c0.6,0.8,0.9,1.9-0.1,2.5C853.9,350.2,852.8,350,852,349.4L852,349.4z M860.8,356.1
			c-0.9,0.8-2.3,0.6-3-0.3c-0.7-0.8-0.7-2.1,0.1-2.8C859.6,351.3,862.7,354.5,860.8,356.1L860.8,356.1z M863.6,343.5
			c-0.8,0.9-2.2,1-3.1,0.2c0,0,0,0-0.1-0.1c-0.5-0.8-0.3-1.9,0.5-2.5c0.7-0.8,1.8-1,2.7-0.3C864.7,341.5,864.3,342.6,863.6,343.5
			L863.6,343.5z"/>
		<path class="st7" d="M935.6,322.2c0.1,1.4,0.6,2.8,1.3,4c0.6,0.9,1.7,1.3,2.8,1.1c1.4-0.3,2.1-1.7,3.5-1.8
			c1.2-0.1,2.1,0.9,3.3,1.1c1.3,0.2,2.7,0.3,4,0.3c2.3,0,4.4-1.1,5.7-3c0.4-0.6,0.7-1.1,0.9-1.8c0.2-0.6,0.4-1.2,0.6-1.7
			c0.4-0.5,1-0.8,1.6-1l2.1-0.9c3-1.3,6.1-2.5,9.2-3.4c3.2-0.8,6.4-1.2,9.7-1.2c3.3-0.1,6.6-0.2,9.9,0c5.7,0.3,11.3,1.7,17,1
			c-3.7-1.9-7.8-2.4-11.8-2.8c-4.5-0.5-9.1-0.7-13.6-0.4c-4.2,0.3-8.3,0.8-12.5,1.6c-1.6,0.4-3.3,0.7-4.9,0.7
			c-0.8,0-1.5-0.7-1.5-1.5c0,0,0,0,0-0.1c-0.1-3.3,1.1-6.6,3.3-9.1c2.3-2.9,5.5-4.9,8.5-7c3.6-2.6,7.4-4.9,11.3-7
			c3.9-2.1,8-3.7,12.1-5.5s8.3-3.5,12.5-4.8c2.1-0.7,4.3-1.2,6.4-1.8l6.7-2c0-0.2-0.9-0.1-1-0.1c-6.2,0.1-12.1,2.1-18,3.9
			c-12.3,3.9-23.8,9.8-34.1,17.4c-2.4,1.7-4.6,3.8-7.2,5.2c-2.4,1.2-5.1,1.5-7.6,0.9c-0.7,0-1.4-0.4-1.8-0.9
			c-0.4-0.9-0.5-1.9-0.2-2.9c0.5-2.9,1.4-5.7,2.6-8.4c3.5-8.2,8.5-15.6,13.3-23c1.8-2.8,3.6-5.4,5.7-7.9c4.2-5.2,8.5-10.3,12.8-15.4
			c-0.3,0.1-4.9,3.6-5.4,4.1c-3.6,3.4-6.9,7.1-10,11c-1.5,2-3,4-4.4,6c-1.5,2.2-7.8,11.5-8.4,12.6c-1.2,2.1-2.4,4.3-3.5,6.4
			c-1.8,3.5-3.8,7-5.2,10.7c-1.1,2.7-2,5.5-3.8,7.8c-0.9,1.2-2.1,2.1-3.5,2.7c-0.8,0.4-1.7,0.5-2.4,0.9c-0.7,0.5-1.3,1.2-1.7,2
			c-0.4,0.7-0.6,1.5-1,2.2c-0.4,0.7-0.8,1.3-1.3,1.9c-1,1.3-1.8,2.8-2.2,4.4C935.3,318.5,935.3,320.3,935.6,322.2z M951.2,315.9
			c-1.1,0.4-1.8-0.5-2-1.5c-0.5-2.3,2.5-2.7,3.5-1C952.7,314.5,952.1,315.5,951.2,315.9z M951.8,320.4c2.7-0.3,3.2,3.8,0.6,4.3
			C950,325.2,949.5,320.7,951.8,320.4z M938.9,317.5c0-1,0.9-1.9,1.9-1.9c0.9-0.3,1.9,0.2,2.2,1.2c0.1,1.2-0.8,2.3-2.1,2.5
			C939.9,319.1,938.9,318.7,938.9,317.5z"/>
		<path class="st7" d="M947.5,375.8c-2.3,7.9-8.4,12.2-14.6,16.3c-2.4,1.6-4.9,3.3-7.9,3.6c-1.7,1.3-3.6,2.1-5.7,2.4
			c-2.6,1-5.1,2.1-8,1.9c-1.1,0.7-2.4,0.9-3.7,0.5c-11.6,3.2-18.9-3.3-25.5-11.5c-2.8-3.5-5.7-6.8-9.6-9.1c-0.9,0.1-1.9,0.5-2.6,0.2
			c-1.2-0.7-2.3-1.4-3.2,0.2c-0.8,1.4-1.6,2.8-0.3,4.3c1.2,1.1,1.5,2.8,0.9,4.3c-0.3,0.8-1.9,1.6-0.4,2.5c1.2,0.6,2.7,0.2,3.4-0.9
			c1.2-1.6,1.4-4,3.9-4.6c-1.8,3.2-1.2,7.9-6,9.4c-1.7,0.5-1.6,1.7-0.1,2.4c1.4,0.5,2.3,1.9,2.3,3.3c-0.2,5.3,4,6.5,7.3,9.3
			c-1.4-6.7-1.7-12.6,2.7-18c1.7,1.8-0.2,2.8-0.4,4c-0.3,1.6-1,3.2-1.4,4.9c-0.2,0.9-0.1,2,1.1,2.1s0.8-1,1-1.7
			c0.6-2.1,1.2-4.2,1.8-6.6c1.1,0.8,1.5,2.2,1,3.4c-2.3,7.2,0.3,13.1,5,18.4c0.8,1.2,2.3,1.6,3.7,1.1c2.8-0.7,5.8-0.1,8.9-0.1
			c-4.2-2.2-8.2-4.2-10.5-8.5c0.7-0.8,1.3-0.5,1.5-0.1c3.2,6.5,10.2,5.7,15.4,7.8c4.1,1.6,8.8-1.4,12.8-3.8c1.1-0.6,1.7-1.4,3.3-1.1
			c1.8,0.3,3.6-0.1,5.1-1.1c3.6-3,8.3-3.5,12.2-6.2c4.9-3.5,8.7-7.9,12.5-12.4c0.3-0.3,0.6-0.8,0.5-1
			C951.2,386.4,954.5,378.9,947.5,375.8z"/>
		<path class="st5" d="M936.2,395c-2.4,1.6-16.2,9.2-25.3,8.4c-11.6,3.2-18.9-3.3-25.5-11.5c-2.8-3.5-5.7-6.8-9.6-9.1L859,369.3
			c1.2-0.8,2-0.1,2.8,0c15.5,1.8,29.1-1.7,39.2-14.9c3-3.9,3.8-8.5,3.8-13.8c13.6,16.9,41.2,7.7,52.9-8c0.4,1-0.1,1.7-0.5,2.6
			c-4,9.8-5.8,20.3-5.3,30.9c0.3,4.3-0.1,8.6-1.1,12.8C948.6,386.6,942.5,390.9,936.2,395z"/>
		<path class="st3" d="M718,184.6c-18.8-8.8-40.8-7.6-58.6,3.1c-30.3,18.2-40.5,58-22.7,88.9c13.3,23.6,40.1,36,66.7,30.9
			C698.5,254.4,709.5,209.6,718,184.6z"/>
		<path class="st3" d="M951.5,97.8c9.1-18.8,26.9-32,47.5-35.2c34.7-5.3,66.9,19.3,72,54.8c4,27-9.2,53.7-33.1,67
			C1015.5,149.8,986,120.2,951.5,97.8z"/>
		<path class="st2" d="M884.8,484.9l-19.6,63.9c-1.2,3.9-5.4,6.1-9.3,4.9c0,0,0,0,0,0c0,0-79.6-16.9-105.9-23.6
			c-61.3-15.7-110.9-44.8-110.9-44.8c-4-1.2-6.2-5.4-5-9.4l19.6-63.9c1.2-3.9,5.4-6.1,9.3-4.9c0,0,0,0,0,0
			c34.3,10.8,59.3,27.2,93.5,38c38,12,85.3,18.4,123.3,30.4C880.4,475.6,882.9,476.4,884.8,484.9z"/>
		<path class="st8" d="M610.3,489.6c0.8,0.4,1.5,0.9,2.3,1.4c5.1,2.5,10.6,4,16.3,4.6c1.4,0.3,2.8,0.1,4.1-0.3h0.1
			c0.3,0.3,0.8,0.2,1.1-0.1c0,0,0,0,0-0.1c3.8-0.5,7.8-0.6,11.3-2.6l1.3-0.8c7.3-2.9,11.6-8.7,14.2-15.9c0.7-2,1.4-3,3.8-3.3
			c6.8-0.8,13.5-2.3,19.1-6.9c6.6-5.3,10.1-12.2,11.3-20.5c0.2-1.5,0.3-2.5,2.2-3c13.7-4,21.3-18.6,20.6-33.6l0.3-0.1
			c-0.5-7.6-2.9-15-7-21.4l-0.8-1.3c-0.6-0.2-1-0.8-0.8-1.4c-6.1-7.7-13.3-13.8-22.7-17.1c-16.6-5.9-33,2.3-37.8,19.6
			c-1.2,4.4-2.7,6.8-7.3,6.3c0.3,0.2,0.5,0.5,0.7,0.8c-3.2,0.3-6.1,0.7-8.3,1.1l-1.2-0.1c-10.8,1.5-22.2,16.3-21.3,26.2l0,0
			c-0.5,1.4-1.7,2.5-3.2,2.8c-6.5,1.7-12.5,4.4-16.2,10.5l-0.8,1.3c-5.7,6.5-6.3,14.3-4.8,22.2C589.5,472.3,597.9,482.6,610.3,489.6
			z M612.7,424.6L612.7,424.6z"/>
		<path class="st2" d="M640.3,395.6c-0.1,0.3-0.3,0.4-0.6,0.3c-0.1,0-0.2-0.1-0.3-0.2c-0.1-0.1,0-0.4,0-0.7c0.2,0,0.5-0.2,0.7-0.1
			C640.2,395.2,640.3,395.4,640.3,395.6z"/>
		
			<ellipse transform="matrix(0.8967 -0.4426 0.4426 0.8967 -109.0909 346.5297)" class="st3" cx="688" cy="407" rx="20.5" ry="23.5"/>
		
			<ellipse transform="matrix(0.549 -0.8358 0.8358 0.549 -107.0828 732.8678)" class="st3" cx="625.6" cy="465.7" rx="20.7" ry="23.3"/>
		
			<ellipse transform="matrix(0.8091 -0.5876 0.5876 0.8091 -131.4147 468.6757)" class="st3" cx="655.7" cy="436.6" rx="15.3" ry="17.4"/>
		<path class="st3" d="M655.2,494.1c18.1,5.9,36,12,54,17.8c18,5.8,36,11.5,54.1,16.7s36.3,10,54.8,13.7c9.2,1.8,18.5,3.4,27.8,4.4
			c9.4,1.2,18.8,1.5,28.2,1c-9.3,2.3-18.9,2.9-28.5,2.8c-9.6-0.2-19.1-0.9-28.6-2.3c-18.9-2.8-37.6-6.9-55.9-12.2
			c-18.3-5.3-36.3-11.5-54-18.4C689.4,510.7,672,502.9,655.2,494.1z"/>
	</g>
</g>
<linearGradient id="SVGID_3_" gradientUnits="userSpaceOnUse" x1="1.4836" y1="168.9669" x2="588.5937" y2="862.967" gradientTransform="matrix(1 0 0 -1 0 588)">
	<stop  offset="0" style="stop-color:#00E1FF"/>
	<stop  offset="1" style="stop-color:#007AFF"/>
</linearGradient>
<path class="st9" d="M310,55.7c-2.7,2.7,5.6,7.2,13.2,7.2c-7.7,0-15.9,4.5-13.2,7.2c-2.7-2.7-7.2,5.6-7.2,13.2
	c0-7.7-4.5-15.9-7.2-13.2c2.7-2.7-5.6-7.2-13.2-7.2c7.7,0,15.9-4.5,13.2-7.2c2.7,2.7,7.2-5.6,7.2-13.2
	C302.8,50.1,307.3,58.4,310,55.7z"/>
<linearGradient id="SVGID_4_" gradientUnits="userSpaceOnUse" x1="261.55" y1="216.86" x2="572.21" y2="584.08" gradientTransform="matrix(1 0 0 -1 0 588)">
	<stop  offset="0" style="stop-color:#00E1FF"/>
	<stop  offset="1" style="stop-color:#007AFF"/>
</linearGradient>
<path class="st10" d="M450.4,148.6c-1.4,1.4,3,3.8,7,3.8c-4,0-8.4,2.4-7,3.8c-1.4-1.4-3.8,2.9-3.8,7c0-4.1-2.4-8.4-3.8-7
	c1.4-1.4-3-3.8-7-3.8c4,0,8.4-2.4,7-3.8c1.4,1.4,3.8-2.9,3.8-7C446.5,145.7,448.9,150.1,450.4,148.6z"/>
<linearGradient id="SVGID_5_" gradientUnits="userSpaceOnUse" x1="293.6614" y1="106.4188" x2="604.3214" y2="473.6388" gradientTransform="matrix(1 0 0 -1 0 588)">
	<stop  offset="0" style="stop-color:#00E1FF"/>
	<stop  offset="1" style="stop-color:#007AFF"/>
</linearGradient>
<path class="st11" d="M345.2,421.9c-2.5,2.5,5.2,6.8,12.4,6.8c-7.2,0-14.9,4.2-12.4,6.8c-2.5-2.5-6.8,5.2-6.8,12.4
	c0-7.2-4.2-14.9-6.8-12.4c2.5-2.5-5.2-6.8-12.4-6.8c7.2,0,14.9-4.2,12.4-6.8c2.5,2.5,6.8-5.2,6.8-12.4
	C338.4,416.6,342.7,424.4,345.2,421.9z"/>
<linearGradient id="SVGID_6_" gradientUnits="userSpaceOnUse" x1="-453.857" y1="-109.445" x2="164.343" y2="621.3151" gradientTransform="matrix(0.7923 -0.6101 -0.6101 -0.7923 776.439 385.7885)">
	<stop  offset="0" style="stop-color:#00E1FF"/>
	<stop  offset="1" style="stop-color:#007AFF"/>
</linearGradient>
<path class="st12" d="M507.6,248.1c-0.5,4,9.3,2.5,15.7-2.5c-6.4,4.9-10.4,14-6.4,14.5c-4-0.5-2.5,9.3,2.5,15.7
	c-4.9-6.4-14-10.4-14.5-6.4c0.5-4-9.3-2.5-15.7,2.5c6.4-4.9,10.4-14,6.4-14.5c4,0.5,2.5-9.3-2.5-15.7
	C497.9,248.1,507,252.1,507.6,248.1z"/>
<linearGradient id="SVGID_7_" gradientUnits="userSpaceOnUse" x1="-161.6379" y1="85.5712" x2="149.0121" y2="452.7912" gradientTransform="matrix(0.7923 -0.6101 -0.6101 -0.7923 776.439 385.7885)">
	<stop  offset="0" style="stop-color:#00E1FF"/>
	<stop  offset="1" style="stop-color:#007AFF"/>
</linearGradient>
<path class="st13" d="M610,125.1c-0.3,2,4.7,1.2,7.9-1.2c-3.2,2.5-5.2,7-3.2,7.3c-2-0.3-1.2,4.7,1.2,7.9c-2.5-3.2-7-5.2-7.3-3.2
	c0.3-2-4.7-1.2-7.9,1.2c3.2-2.5,5.2-7,3.2-7.3c2,0.3,1.2-4.7-1.2-7.9C605.2,125.1,609.8,127.1,610,125.1z"/>
<linearGradient id="SVGID_8_" gradientUnits="userSpaceOnUse" x1="-328.5515" y1="47.2619" x2="-17.9015" y2="414.4819" gradientTransform="matrix(0.7923 -0.6101 -0.6101 -0.7923 776.439 385.7885)">
	<stop  offset="0" style="stop-color:#00E1FF"/>
	<stop  offset="1" style="stop-color:#007AFF"/>
</linearGradient>
<path class="st14" d="M491.7,470c-0.5,3.5,8.3,2.2,14-2.2c-5.7,4.4-9.2,12.5-5.7,12.9c-3.5-0.5-2.2,8.3,2.2,14
	c-4.4-5.7-12.5-9.2-12.9-5.7c0.5-3.6-8.3-2.2-14,2.2c5.7-4.4,9.2-12.5,5.7-12.9c3.6,0.5,2.2-8.3-2.2-14
	C483.1,470,491.2,473.6,491.7,470z"/>
<linearGradient id="SVGID_9_" gradientUnits="userSpaceOnUse" x1="307.5083" y1="228.1966" x2="1269.8583" y2="1365.7666" gradientTransform="matrix(0.9549 0.297 0.297 -0.9549 -335.506 694.2798)">
	<stop  offset="0" style="stop-color:#00E1FF"/>
	<stop  offset="1" style="stop-color:#007AFF"/>
</linearGradient>
<path class="st15" d="M233.3,438.6c-9.8,5.2,9.2,24.9,30.4,31.5c-21.2-6.6-48.1-1.2-42.9,8.6c-5.2-9.8-24.9,9.2-31.4,30.4
	c6.6-21.2,1.2-48.1-8.6-42.9c9.8-5.2-9.2-24.9-30.4-31.5c21.2,6.6,48.1,1.2,42.9-8.6c5.2,9.8,24.9-9.2,31.4-30.4
	C218.1,416.9,223.5,443.7,233.3,438.6z"/>
<linearGradient id="SVGID_10_" gradientUnits="userSpaceOnUse" x1="-522.0917" y1="416.3396" x2="440.2482" y2="1553.9194" gradientTransform="matrix(0.9053 -0.4247 -0.4247 -0.9053 800.6108 454.8964)">
	<stop  offset="0" style="stop-color:#00E1FF"/>
	<stop  offset="1" style="stop-color:#007AFF"/>
</linearGradient>
<path class="st16" d="M217.1,64.4c-3.8,10.4,23.6,12.1,43.7,2.7c-20.1,9.4-36.3,31.5-25.8,35.3c-10.4-3.8-12.1,23.6-2.7,43.7
	c-9.5-20.1-31.6-36.3-35.3-25.8c3.8-10.4-23.6-12.1-43.7-2.7c20.1-9.4,36.3-31.5,25.8-35.3c10.4,3.8,12.1-23.6,2.7-43.7
	C191.3,58.7,213.4,74.9,217.1,64.4z"/>
<linearGradient id="SVGID_11_" gradientUnits="userSpaceOnUse" x1="-13.0585" y1="276.1307" x2="535.0315" y2="924.0107" gradientTransform="matrix(0.9053 -0.4247 -0.4247 -0.9053 800.6108 454.8964)">
	<stop  offset="0" style="stop-color:#00E1FF"/>
	<stop  offset="1" style="stop-color:#007AFF"/>
</linearGradient>
<path class="st17" d="M709.2,76.4c-2.2,5.9,13.4,6.9,24.8,1.6c-11.5,5.4-20.7,18-14.7,20.1c-6-2.2-6.9,13.4-1.5,24.9
	c-5.4-11.4-18-20.7-20.1-14.7c2.2-5.9-13.4-6.9-24.9-1.5c11.5-5.4,20.7-18,14.7-20.1c6,2.2,6.9-13.4,1.5-24.9
	C694.4,73.2,707,82.4,709.2,76.4z"/>
<path class="st18" d="M465,208.1v-39.3c0-7.6-4-14.5-10.6-18.3l-34-19.7c-6.5-3.8-14.6-3.8-21.2,0l-34,19.7
	c-6.5,3.8-10.6,10.8-10.6,18.3v39.3c0,7.6,4,14.5,10.6,18.3l34,19.7c6.5,3.8,14.6,3.8,21.2,0l34-19.7C461,222.6,465,215.6,465,208.1
	z"/>
<path class="st19" d="M409.8,130.5c3.3,0,6.5,0.9,9.3,2.5l34,19.7c5.8,3.3,9.3,9.5,9.3,16.1v39.3c0,6.6-3.6,12.8-9.3,16.1l-34,19.7
	c-5.8,3.3-12.9,3.3-18.6,0l-34-19.7c-5.7-3.3-9.3-9.5-9.3-16.1v-39.3c0-6.6,3.5-12.8,9.3-16.1l34-19.6
	C403.3,131.4,406.5,130.5,409.8,130.5 M409.8,128c-3.7,0-7.4,1-10.6,2.8l-34,19.7c-6.5,3.8-10.6,10.8-10.6,18.3v39.3
	c0,7.6,4,14.5,10.6,18.3l34,19.7c6.5,3.8,14.6,3.8,21.2,0l34-19.7c6.5-3.8,10.6-10.8,10.6-18.3v-39.3c0-7.6-4-14.5-10.6-18.3
	l-34-19.7C417.2,128.9,413.5,127.9,409.8,128L409.8,128z"/>
<path class="st20" d="M458.4,205.7v-34.7c0-6.6-3.6-12.8-9.3-16.1l-30-17.3c-5.8-3.3-12.9-3.3-18.6,0l-30,17.3
	c-5.8,3.3-9.3,9.5-9.3,16.1v34.7c0,6.7,3.6,12.8,9.3,16.1l30,17.3c5.8,3.3,12.9,3.3,18.6,0l30-17.3
	C454.9,218.6,458.5,212.4,458.4,205.7z"/>
<linearGradient id="SVGID_12_" gradientUnits="userSpaceOnUse" x1="374.808" y1="381.9824" x2="457.328" y2="438.1823" gradientTransform="matrix(1 0 0 -1 0 588)">
	<stop  offset="0" style="stop-color:#00E1FF"/>
	<stop  offset="1" style="stop-color:#007AFF"/>
</linearGradient>
<path class="st21" d="M409.9,220.6c-2.4,0-4.8,0.1-7.2-0.1c-1-0.1-2-0.5-2.8-1.2c-1.6-1.5-3.1-3.1-4.4-4.9c-2.3-3-5.5-4.7-8.5-6.6
	c-1.1-0.7-1.9-1.6-2.5-2.7c-4.3-8-8.5-16-12.8-24c-0.7-1.1-0.8-2.5-0.4-3.8c1.4-4.7,2.6-9.4,4-14.2c0.7-2.4,1.8-2.8,4.1-2
	c5.4,1.9,10.8,3.8,16.3,5.6c0.7,0.2,1.6,0.2,2.3,0c7.8-2.7,16.2-2.7,24,0c0.9,0.2,1.8,0.2,2.6-0.1c5.2-1.8,10.4-3.6,15.5-5.4
	c3-1,3.8-0.6,4.7,2.4c1.3,4.7,2.6,9.3,3.8,14c0.2,1.1,0.1,2.2-0.4,3.2c-4.3,8.2-8.6,16.4-13,24.6c-0.5,1-1.3,1.8-2.3,2.3
	c-5.5,2.7-9.2,7.2-13.2,11.6c-0.8,0.7-1.8,1.1-2.9,1.2C414.5,220.6,412.2,220.5,409.9,220.6L409.9,220.6z M390.5,170.1
	c-0.3-0.2-0.4-0.4-0.6-0.5l-9.8-3.5c-1-0.4-1.3,0.3-1.5,1.1c-0.8,3.3-1.7,6.5-2.6,9.7c-0.4,1.1-0.2,2.3,0.4,3.3
	c3.9,7.3,7.8,14.7,11.8,22c0.4,0.8,1.1,1.5,1.9,2c3.9,2,7.3,4.9,10,8.3c0.6,0.8,1.3,1.6,2,2.2c0.6,0.6,1.4,1,2.3,1.1
	c2.8,0.1,5.7-0.1,8.5,0.2c2.4,0.3,4.8-0.7,6.2-2.7c2.9-3.7,6.1-7,10.4-9c0.8-0.4,1.5-1,1.9-1.8c4.1-7.6,8.1-15.2,12.1-22.9
	c0.3-0.6,0.4-1.3,0.3-2c-0.9-3.5-1.9-6.9-2.8-10.3c-0.3-1.2-0.9-1.4-2-1c-2.8,1-5.6,2-8.4,3c-0.5,0.2-1,0.4-1.4,0.6
	c2,1.6,3.8,3,5.5,4.5c0.3,0.4,0.5,0.9,0.4,1.4c-0.7,1-1.4,2-2.1,3c-0.9-0.8-1.3-1-1.6-1.3c-11.8-10.9-30-11.2-42.2-0.6
	c-1.8,1.5-1.8,1.5-3.5-0.2c-1.4-1.4-1.5-1.5,0.1-2.8S388.8,171.4,390.5,170.1z"/>
<linearGradient id="SVGID_13_" gradientUnits="userSpaceOnUse" x1="381.4071" y1="372.2889" x2="463.9371" y2="428.4889" gradientTransform="matrix(1 0 0 -1 0 588)">
	<stop  offset="0" style="stop-color:#00E1FF"/>
	<stop  offset="1" style="stop-color:#007AFF"/>
</linearGradient>
<path class="st22" d="M415.8,191c0.1-1.5,0-3.1,0.3-4.6c0.5-3.1,3.1-5.5,6.3-5.5c2.4-0.1,4.8,0,7.2,0c1,0,1.4,0.4,1.3,1.3
	c-0.2,1.3,0.7,2.8-1.1,3.6c-0.2,0.1-0.2,0.9-0.2,1.4c-0.2,4.5-2.8,7.1-7.3,7.2c-0.7,0.1-1.3,0.3-1.8,0.8c-0.9,0.7-2.5,0.6-3.8,0.6
	c-0.3,0-0.6-1-0.7-1.6c-0.1-1-0.1-2,0-3L415.8,191z M424.8,187c0.1-0.8,0-1.6-1.4-1.6c-1.9,0-2.8,0.8-2.9,2.6c0,1,0,1.8,1.4,1.7
	C423.9,189.7,424.8,189,424.8,187L424.8,187z"/>
<linearGradient id="SVGID_14_" gradientUnits="userSpaceOnUse" x1="373.3839" y1="384.0737" x2="455.9139" y2="440.2637" gradientTransform="matrix(1 0 0 -1 0 588)">
	<stop  offset="0" style="stop-color:#00E1FF"/>
	<stop  offset="1" style="stop-color:#007AFF"/>
</linearGradient>
<path class="st23" d="M393.8,180.9c1.1,0,2.1,0,3.2,0c3.6,0,6.5,2.8,6.6,6.4c0.1,2.4,0,4.8,0,7.2c0,1-0.4,1.4-1.4,1.3
	c-1.3-0.1-2.9,0.6-3.7-1.3c-0.1-0.2-0.9-0.2-1.4-0.2c-4.4-0.2-6.9-2.7-7.1-7.1c0-0.6-0.8-1.2-0.9-1.9c-0.3-1.2-0.4-2.5-0.4-3.8
	c0-0.2,1.1-0.5,1.7-0.6C391.6,180.8,392.7,180.9,393.8,180.9z M399,188.3c0-2.1-0.8-2.9-2.6-2.9c-1.1,0-1.7,0.3-1.6,1.5
	c0,1.9,0.9,2.8,2.8,2.9C398.7,189.8,399.1,189.4,399,188.3L399,188.3z"/>
<linearGradient id="SVGID_15_" gradientUnits="userSpaceOnUse" x1="384.6487" y1="367.5426" x2="467.1687" y2="423.7326" gradientTransform="matrix(1 0 0 -1 0 588)">
	<stop  offset="0" style="stop-color:#00E1FF"/>
	<stop  offset="1" style="stop-color:#007AFF"/>
</linearGradient>
<path class="st24" d="M418,203.2c-0.2,0.5-0.5,0.9-0.8,1.3c-1.9,1.6-3.8,3.2-5.8,4.8c-1.1,1-2.8,0.9-3.8-0.2
	c-1.6-1.4-3.2-2.8-4.8-4.2c-1-0.7-1.3-1.9-0.9-3c0.4-1,1.5-1.5,2.5-1.3c3.6,0,7.2,0,10.9,0C417,200.6,418,201.5,418,203.2z"/>
<path class="st18" d="M375.8,356.2v-30.5c0-5.9-3.1-11.3-8.2-14.2l-26.5-15.3c-5.1-2.9-11.3-2.9-16.4,0l-26.5,15.3
	c-5.1,2.9-8.2,8.4-8.2,14.2v30.5c0,5.9,3.1,11.3,8.2,14.2l26.5,15.3c5.1,2.9,11.3,2.9,16.4,0l26.5-15.3
	C372.6,367.5,375.8,362.1,375.8,356.2z"/>
<path class="st19" d="M332.9,296c2.5,0,5,0.7,7.2,1.9l26.4,15.3c4.5,2.6,7.2,7.4,7.2,12.5v30.5c0,5.2-2.8,9.9-7.2,12.5L340.1,384
	c-4.5,2.6-10,2.6-14.5,0l-26.5-15.3c-4.5-2.6-7.2-7.4-7.2-12.5v-30.5c0-5.2,2.8-9.9,7.2-12.5l26.5-15.3
	C327.9,296.6,330.4,296,332.9,296 M332.9,294c-2.9,0-5.7,0.8-8.2,2.2l-26.5,15.3c-5.1,2.9-8.2,8.4-8.2,14.2v30.5
	c0,5.9,3.1,11.3,8.2,14.2l26.5,15.3c5.1,2.9,11.3,2.9,16.4,0l26.5-15.3c5.1-2.9,8.2-8.4,8.2-14.2v-30.5c0-5.9-3.1-11.3-8.2-14.2
	l-26.5-15.3C338.6,294.7,335.8,294,332.9,294L332.9,294z"/>
<path class="st20" d="M370.7,354.4v-26.9c0-5.2-2.8-9.9-7.2-12.5l-23.3-13.5c-4.5-2.6-10-2.6-14.5,0L302.4,315
	c-4.5,2.6-7.2,7.4-7.2,12.5v26.9c0,5.2,2.8,10,7.2,12.5l23.3,13.5c4.5,2.6,10,2.6,14.5,0l23.3-13.5
	C367.9,364.4,370.7,359.6,370.7,354.4z"/>
<linearGradient id="SVGID_16_" gradientUnits="userSpaceOnUse" x1="305.7279" y1="233.3924" x2="369.8179" y2="277.0324" gradientTransform="matrix(1 0 0 -1 0 588)">
	<stop  offset="0" style="stop-color:#00E1FF"/>
	<stop  offset="1" style="stop-color:#007AFF"/>
</linearGradient>
<path class="st25" d="M333,365.9c-1.9,0-3.7,0.1-5.6,0c-0.8-0.1-1.5-0.4-2.1-0.9c-1.2-1.2-2.4-2.4-3.4-3.8c-1.8-2.3-4.2-3.6-6.6-5.2
	c-0.8-0.5-1.5-1.2-2-2.1c-3.4-6.2-6.6-12.4-9.9-18.6c-0.5-0.9-0.7-2-0.3-3c1.1-3.6,2-7.3,3.1-11c0.5-1.8,1.4-2.2,3.2-1.5
	c4.2,1.5,8.4,2.9,12.6,4.3c0.6,0.2,1.2,0.2,1.8,0c6-2.1,12.6-2.1,18.6,0c0.7,0.2,1.4,0.1,2-0.1c4-1.4,8-2.8,12.1-4.2
	c2.3-0.8,3-0.5,3.6,1.8c1,3.6,2,7.3,3,10.9c0.2,0.8,0.1,1.7-0.3,2.5c-3.3,6.4-6.7,12.8-10.1,19.1c-0.4,0.8-1,1.4-1.8,1.8
	c-4.2,2.1-7.2,5.6-10.2,9c-0.6,0.6-1.4,0.9-2.3,0.9C336.5,366,334.7,365.8,333,365.9L333,365.9z M318,326.7
	c-0.2-0.2-0.3-0.3-0.5-0.4l-7.6-2.7c-0.8-0.3-1,0.2-1.1,0.8c-0.7,2.5-1.3,5-2.1,7.5c-0.3,0.9-0.2,1.8,0.3,2.6
	c3.1,5.7,6.1,11.4,9.2,17.1c0.3,0.7,0.9,1.2,1.5,1.6c3,1.6,5.7,3.8,7.8,6.5c0.5,0.6,1,1.2,1.6,1.7c0.5,0.5,1.1,0.7,1.8,0.9
	c2.2,0.1,4.4-0.1,6.6,0.1c1.9,0.3,3.7-0.6,4.8-2.1c2.1-2.9,4.9-5.3,8-7c0.6-0.3,1.1-0.8,1.5-1.4c3.2-5.9,6.3-11.8,9.4-17.8
	c0.2-0.5,0.3-1,0.2-1.5c-0.7-2.7-1.5-5.4-2.1-8c-0.2-0.9-0.7-1.1-1.5-0.8c-2.2,0.8-4.4,1.5-6.6,2.3c-0.4,0.1-0.7,0.3-1.1,0.5
	c1.5,1.3,2.9,2.4,4.3,3.5c0.3,0.3,0.4,0.7,0.3,1.1c-0.5,0.8-1.1,1.6-1.7,2.3c-0.7-0.6-1-0.8-1.2-1c-9.2-8.5-23.3-8.7-32.8-0.5
	c-1.4,1.2-1.4,1.2-2.7-0.1c-1.1-1.1-1.1-1.1,0.1-2.2S316.6,327.8,318,326.7L318,326.7z"/>
<linearGradient id="SVGID_17_" gradientUnits="userSpaceOnUse" x1="310.8682" y1="225.8326" x2="374.9582" y2="269.4826" gradientTransform="matrix(1 0 0 -1 0 588)">
	<stop  offset="0" style="stop-color:#00E1FF"/>
	<stop  offset="1" style="stop-color:#007AFF"/>
</linearGradient>
<path class="st26" d="M337.6,343c0-1.2,0.1-2.4,0.2-3.6c0.3-2.4,2.4-4.3,4.9-4.3c1.9-0.1,3.7,0,5.6,0c0.8,0,1.1,0.3,1,1
	c-0.1,1,0.5,2.2-0.9,2.8c-0.2,0.1-0.1,0.7-0.2,1c-0.2,3.5-2.1,5.5-5.6,5.6c-0.5,0-1,0.3-1.4,0.6c-0.9,0.4-2,0.6-3,0.4
	c-0.2,0-0.5-0.8-0.5-1.3C337.6,344.6,337.6,343.8,337.6,343L337.6,343z M344.6,339.9c0.1-0.6,0-1.2-1.1-1.2c-1.5,0-2.2,0.6-2.2,2
	c0,0.8,0,1.4,1.1,1.3C343.9,342,344.5,341.4,344.6,339.9L344.6,339.9z"/>
<linearGradient id="SVGID_18_" gradientUnits="userSpaceOnUse" x1="304.6284" y1="234.997" x2="368.7284" y2="278.647" gradientTransform="matrix(1 0 0 -1 0 588)">
	<stop  offset="0" style="stop-color:#00E1FF"/>
	<stop  offset="1" style="stop-color:#007AFF"/>
</linearGradient>
<path class="st27" d="M320.5,335.1c0.8,0,1.6,0,2.5,0c2.8,0,5.1,2.2,5.2,5c0.1,1.9,0,3.7,0,5.6c0,0.8-0.3,1.1-1,1
	c-1-0.1-2.3,0.5-2.9-1c-0.1-0.2-0.7-0.2-1-0.2c-3.4-0.1-5.3-2.1-5.5-5.5c0-0.5-0.6-1-0.7-1.5c-0.2-1-0.3-2-0.3-3
	c0-0.2,0.9-0.4,1.3-0.5C318.8,335,319.6,335.1,320.5,335.1z M324.5,340.9c0-1.6-0.6-2.2-2-2.3c-0.9,0-1.3,0.2-1.3,1.2
	c0,1.5,0.7,2.2,2.2,2.2C324.3,342.1,324.6,341.7,324.5,340.9L324.5,340.9z"/>
<linearGradient id="SVGID_19_" gradientUnits="userSpaceOnUse" x1="313.3523" y1="222.1913" x2="377.4423" y2="265.8413" gradientTransform="matrix(1 0 0 -1 0 588)">
	<stop  offset="0" style="stop-color:#00E1FF"/>
	<stop  offset="1" style="stop-color:#007AFF"/>
</linearGradient>
<path class="st28" d="M339.3,352.5c-0.1,0.4-0.4,0.7-0.6,1c-1.5,1.3-3,2.5-4.5,3.7c-0.9,0.7-2.2,0.7-2.9-0.2
	c-1.3-1.1-2.5-2.1-3.8-3.2c-0.7-0.5-1-1.5-0.7-2.3c0.3-0.7,1.1-1.1,1.9-1c2.8,0,5.6,0,8.4,0c1-0.1,2,0.6,2.1,1.6
	C339.3,352.2,339.3,352.3,339.3,352.5z"/>
<path class="st18" d="M689.3,406.1v-70.8c0-13.6-7.3-26.2-19-33L609,266.9c-11.8-6.8-26.3-6.8-38.1,0l-61.3,35.4
	c-11.8,6.8-19.1,19.4-19,33v70.8c0,13.6,7.3,26.2,19,33l61.3,35.4c11.8,6.8,26.3,6.8,38.1,0l61.3-35.4
	C682.1,432.3,689.3,419.7,689.3,406.1z"/>
<path class="st19" d="M589.9,266.3c5.9,0,11.7,1.6,16.8,4.5l61.3,35.4c10.3,6,16.7,17,16.8,29V406c0,12-6.4,23-16.8,29l-61.3,35.4
	c-10.4,6-23.1,6-33.5,0L511.8,435c-10.3-6-16.7-17-16.8-29v-70.8c0-12,6.4-23,16.8-29l61.3-35.4C578.3,267.9,584,266.4,589.9,266.3
	 M589.9,261.8c-6.7,0-13.2,1.8-19,5.1l-61.3,35.4c-11.8,6.8-19.1,19.4-19,33v70.8c0,13.6,7.3,26.2,19,33l61.3,35.4
	c11.8,6.8,26.3,6.8,38.1,0l61.3-35.4c11.8-6.8,19.1-19.4,19-33v-70.8c0-13.6-7.3-26.2-19-33L609,266.9
	C603.2,263.5,596.7,261.8,589.9,261.8L589.9,261.8z"/>
<path class="st20" d="M677.5,401.9v-62.4c0-12-6.4-23.1-16.8-29.1l-54-31.2c-10.4-6-23.2-6-33.6,0l-54,31.2
	c-10.4,6-16.8,17.1-16.8,29.1v62.4c0,12,6.4,23.1,16.8,29.1l54,31.2c10.4,6,23.2,6,33.6,0l54-31.2
	C671.1,424.9,677.5,413.8,677.5,401.9z"/>
<linearGradient id="SVGID_20_" gradientUnits="userSpaceOnUse" x1="526.9292" y1="185.6159" x2="675.5292" y2="286.8059" gradientTransform="matrix(1 0 0 -1 0 588)">
	<stop  offset="0" style="stop-color:#00E1FF"/>
	<stop  offset="1" style="stop-color:#007AFF"/>
</linearGradient>
<path class="st29" d="M590,428.5c-4.3,0-8.6,0.2-12.9-0.1c-1.9-0.2-3.6-0.9-5-2.2c-2.9-2.7-5.5-5.6-7.9-8.7
	c-4.1-5.4-9.8-8.4-15.3-12c-1.9-1.2-3.5-2.9-4.6-4.9c-7.8-14.3-15.3-28.8-23-43.2c-1.2-2.1-1.5-4.6-0.8-6.9c2.5-8.5,4.7-17,7.1-25.5
	c1.2-4.2,3.2-5,7.3-3.6c9.7,3.4,19.5,6.8,29.3,10.1c1.4,0.4,2.8,0.4,4.2,0c14-4.8,29.2-4.8,43.2,0c1.6,0.4,3.2,0.3,4.7-0.2
	c9.4-3.1,18.7-6.5,28-9.7c5.3-1.9,6.9-1.1,8.4,4.3c2.3,8.4,4.7,16.8,6.8,25.3c0.4,1.9,0.2,3.9-0.7,5.7
	c-7.7,14.8-15.5,29.6-23.5,44.3c-0.9,1.8-2.3,3.2-4.1,4.2c-9.8,4.9-16.6,13-23.7,20.9c-1.4,1.3-3.3,2-5.2,2.1
	C598.2,428.8,594.1,428.6,590,428.5L590,428.5z M555.1,337.7c-0.3-0.3-0.6-0.6-1-0.8c-5.9-2.1-11.7-4.2-17.6-6.3
	c-1.9-0.7-2.3,0.5-2.7,2c-1.5,5.9-3,11.7-4.8,17.5c-0.7,2-0.4,4.2,0.6,6c7.1,13.2,14.1,26.4,21.2,39.6c0.8,1.5,2,2.8,3.5,3.6
	c7,3.7,13.1,8.8,18,15c1.1,1.5,2.3,2.8,3.7,4c1.2,1.1,2.6,1.8,4.1,2c5.1,0.3,10.2-0.2,15.2,0.3s8.2-1.3,11.1-4.9
	c5.2-6.6,10.9-12.6,18.7-16.3c1.4-0.7,2.6-1.9,3.4-3.3c7.4-13.7,14.7-27.4,21.9-41.2c0.6-1.1,0.7-2.3,0.5-3.5
	c-1.6-6.2-3.4-12.4-5-18.6c-0.6-2.1-1.5-2.5-3.5-1.8c-5,1.9-10.1,3.6-15.2,5.4c-0.8,0.3-1.6,0.7-2.5,1.2c3.5,2.9,6.8,5.5,9.8,8.2
	c0.6,0.7,0.9,1.6,0.7,2.5c-1.2,1.9-2.5,3.6-3.8,5.4c-1.7-1.4-2.3-1.8-2.8-2.3c-22-19.8-53.5-20.2-76-1.1c-3.3,2.8-3.3,2.8-6.3-0.3
	c-2.6-2.6-2.6-2.6,0.2-5S552.1,340.1,555.1,337.7L555.1,337.7z"/>
<linearGradient id="SVGID_21_" gradientUnits="userSpaceOnUse" x1="538.8063" y1="168.1654" x2="687.4063" y2="269.3553" gradientTransform="matrix(1 0 0 -1 0 588)">
	<stop  offset="0" style="stop-color:#00E1FF"/>
	<stop  offset="1" style="stop-color:#007AFF"/>
</linearGradient>
<path class="st30" d="M600.8,375.4c0-2.8,0.2-5.5,0.5-8.3c0.8-5.7,5.6-9.9,11.3-10c4.3-0.1,8.6,0,12.9-0.1c1.8,0,2.5,0.7,2.3,2.4
	c-0.3,2.3,1.2,5.1-2,6.5c-0.4,0.2-0.3,1.6-0.4,2.4c-0.4,8.1-5,12.7-13.1,13c-1.2,0.1-2.3,0.6-3.3,1.4c-1.7,1.2-4.5,1-6.8,1
	c-0.5,0-1.2-1.9-1.3-2.9c-0.1-1.8-0.1-3.6-0.1-5.5L600.8,375.4z M617,368.1c0.2-1.5-0.1-2.9-2.5-2.8c-3.4,0-5,1.5-5.1,4.8
	c-0.1,1.8,0,3.2,2.5,3.1C615.3,373,616.9,371.8,617,368.1z"/>
<linearGradient id="SVGID_22_" gradientUnits="userSpaceOnUse" x1="524.3591" y1="189.376" x2="672.959" y2="290.576" gradientTransform="matrix(1 0 0 -1 0 588)">
	<stop  offset="0" style="stop-color:#00E1FF"/>
	<stop  offset="1" style="stop-color:#007AFF"/>
</linearGradient>
<path class="st31" d="M561,357.1c1.9,0,3.8,0,5.7,0c6.5,0,11.8,5.1,12,11.6c0.2,4.3,0,8.6,0.1,12.9c0,1.7-0.8,2.5-2.4,2.3
	c-2.4-0.2-5.2,1.1-6.7-2.2c-0.2-0.4-1.6-0.4-2.4-0.4c-8-0.3-12.4-4.8-12.8-12.8c-0.1-1.2-1.4-2.2-1.7-3.4c-0.5-2.2-0.7-4.5-0.7-6.8
	c0-0.4,2-1,3.1-1C557.2,357,559.1,357.1,561,357.1z M570.4,370.5c0-3.7-1.4-5.1-4.8-5.3c-2-0.1-3,0.5-3,2.7c0.1,3.5,1.6,5.1,5,5.2
	C569.9,373.2,570.7,372.4,570.4,370.5L570.4,370.5z"/>
<linearGradient id="SVGID_23_" gradientUnits="userSpaceOnUse" x1="544.5784" y1="159.6924" x2="693.1783" y2="260.8925" gradientTransform="matrix(1 0 0 -1 0 588)">
	<stop  offset="0" style="stop-color:#00E1FF"/>
	<stop  offset="1" style="stop-color:#007AFF"/>
</linearGradient>
<path class="st32" d="M604.6,397.3c-0.3,0.9-0.8,1.7-1.4,2.4c-3.4,3-6.8,5.8-10.4,8.6c-2.3,1.8-4.6,1.6-6.8-0.4
	c-2.9-2.5-5.8-5-8.7-7.5c-1.6-1.4-2.5-3.2-1.7-5.4c0.8-2,2.5-2.4,4.5-2.4c6.5,0,13,0,19.5,0C602.8,392.7,604.7,394.3,604.6,397.3z"
	/>
<g>
	<defs>
		<path id="SVGID_24_" d="M689.3,405.8V335c0-13.6-7.2-26.2-19-33L609,266.6c-11.8-6.8-26.3-6.8-38.1,0L509.5,302
			c-11.8,6.8-19.1,19.4-19,33v70.8c0,13.6,7.3,26.2,19,33l61.3,35.4c11.8,6.8,26.3,6.8,38.1,0l61.3-35.4
			C682,432,689.3,419.4,689.3,405.8z"/>
	</defs>
	<clipPath id="SVGID_25_">
		<use xlink:href="#SVGID_24_"  style="overflow:visible;"/>
	</clipPath>
	<g class="st33">
		<g class="st34">
			
				<rect x="497.3" y="399.8" transform="matrix(0.7071 -0.7071 0.7071 0.7071 -110.0764 558.7988)" class="st35" width="244.4" height="25"/>
		</g>
		<g class="st34">
			<polygon class="st35" points="515.7,464.9 498.8,447.9 664,281.3 680.8,298.3 			"/>
		</g>
		<line class="st36" x1="642.8" y1="263.2" x2="470.4" y2="435.5"/>
	</g>
</g>
<g class="st37">
	
		<linearGradient id="SVGID_26_" gradientUnits="userSpaceOnUse" x1="454.6444" y1="186.2062" x2="679.1245" y2="451.5663" gradientTransform="matrix(1 0 0 -1 0 588)">
		<stop  offset="0" style="stop-color:#00E1FF"/>
		<stop  offset="1" style="stop-color:#007AFF"/>
	</linearGradient>
	<path class="st38" d="M572.6,262.9c-1,1,2.1,2.8,5.1,2.8c-2.9,0-6.1,1.7-5.1,2.8c-1-1-2.8,2.1-2.8,5.1c0-2.9-1.7-6.1-2.8-5.1
		c1-1-2.1-2.8-5.1-2.8c2.9,0,6.1-1.7,5.1-2.8c1,1,2.8-2.1,2.8-5.1C569.8,260.7,571.6,263.9,572.6,262.9z"/>
	
		<linearGradient id="SVGID_27_" gradientUnits="userSpaceOnUse" x1="548.6893" y1="99.6406" x2="773.1693" y2="365.0006" gradientTransform="matrix(1 0 0 -1 0 588)">
		<stop  offset="0" style="stop-color:#00E1FF"/>
		<stop  offset="1" style="stop-color:#007AFF"/>
	</linearGradient>
	<path class="st39" d="M685.1,327.6c-1,1,2.1,2.8,5.1,2.8c-2.9,0-6.1,1.7-5.1,2.8c-1-1-2.8,2.1-2.8,5.1c0-2.9-1.7-6.1-2.8-5.1
		c1-1-2.1-2.8-5.1-2.8c2.9,0,6.1-1.7,5.1-2.8c1,1,2.8-2.1,2.8-5.1C682.4,325.4,684.1,328.6,685.1,327.6z"/>
	
		<linearGradient id="SVGID_28_" gradientUnits="userSpaceOnUse" x1="582.0284" y1="109.8629" x2="806.5084" y2="375.2228" gradientTransform="matrix(1 0 0 -1 0 588)">
		<stop  offset="0" style="stop-color:#00E1FF"/>
		<stop  offset="1" style="stop-color:#007AFF"/>
	</linearGradient>
	<path class="st40" d="M619.3,435c-1.8,1.8,3.8,4.9,9,4.9c-5.2,0-10.8,3.1-9,4.9c-1.8-1.8-4.9,3.8-4.9,9c0-5.2-3.1-10.8-4.9-9
		c1.8-1.8-3.8-4.9-9-4.9c5.2,0,10.8-3.1,9-4.9c1.8,1.8,4.9-3.8,4.9-9C614.4,431.2,617.4,436.8,619.3,435z"/>
</g>
<linearGradient id="SVGID_29_" gradientUnits="userSpaceOnUse" x1="23.047" y1="313.231" x2="247.5269" y2="578.591" gradientTransform="matrix(1 0 0 -1 0 588)">
	<stop  offset="0" style="stop-color:#00E1FF"/>
	<stop  offset="1" style="stop-color:#007AFF"/>
</linearGradient>
<path class="st41" d="M141,135.8c-1,1,2.1,2.8,5.1,2.8c-2.9,0-6.1,1.7-5.1,2.8c-1-1-2.8,2.1-2.8,5.1c0-2.9-1.7-6.1-2.8-5.1
	c1-1-2.1-2.8-5.1-2.8c2.9,0,6.1-1.7,5.1-2.8c1,1,2.8-2.1,2.8-5.1C138.3,133.7,140,136.9,141,135.8z"/>
<linearGradient id="SVGID_30_" gradientUnits="userSpaceOnUse" x1="117.1142" y1="226.6464" x2="341.5942" y2="492.0064" gradientTransform="matrix(1 0 0 -1 0 588)">
	<stop  offset="0" style="stop-color:#00E1FF"/>
	<stop  offset="1" style="stop-color:#007AFF"/>
</linearGradient>
<path class="st42" d="M253.6,200.6c-1,1,2.1,2.8,5.1,2.8c-2.9,0-6.1,1.7-5.1,2.8c-1-1-2.8,2.1-2.8,5.1c0-2.9-1.7-6.1-2.8-5.1
	c1-1-2.1-2.8-5.1-2.8c2.9,0,6.1-1.7,5.1-2.8c1,1,2.8-2.1,2.8-5.1C250.8,198.4,252.5,201.6,253.6,200.6z"/>
<linearGradient id="SVGID_31_" gradientUnits="userSpaceOnUse" x1="150.4527" y1="236.8693" x2="374.9327" y2="502.2193" gradientTransform="matrix(1 0 0 -1 0 588)">
	<stop  offset="0" style="stop-color:#00E1FF"/>
	<stop  offset="1" style="stop-color:#007AFF"/>
</linearGradient>
<path class="st43" d="M187.7,308c-1.8,1.8,3.8,4.9,9,4.9c-5.2,0-10.8,3.1-9,4.9c-1.8-1.8-4.9,3.8-4.9,9c0-5.2-3.1-10.8-4.9-9
	c1.8-1.8-3.8-4.9-9-4.9c5.2,0,10.8-3.1,9-4.9c1.8,1.8,4.9-3.8,4.9-9C182.8,304.2,185.9,309.8,187.7,308z"/>
<linearGradient id="SVGID_32_" gradientUnits="userSpaceOnUse" x1="-433.0571" y1="232.3752" x2="-208.5771" y2="497.7252" gradientTransform="matrix(0.7923 -0.6101 -0.6101 -0.7923 776.439 385.7885)">
	<stop  offset="0" style="stop-color:#00E1FF"/>
	<stop  offset="1" style="stop-color:#007AFF"/>
</linearGradient>
<path class="st44" d="M300.2,283.9c-0.2,1.5,3.4,0.9,5.7-0.9c-2.3,1.8-3.8,5.1-2.3,5.3c-1.5-0.2-0.9,3.4,0.9,5.7
	c-1.8-2.3-5.1-3.8-5.3-2.3c0.2-1.5-3.4-0.9-5.7,0.9c2.3-1.8,3.8-5.1,2.3-5.3c1.5,0.2,0.9-3.4-0.9-5.7
	C296.7,283.9,300,285.3,300.2,283.9z"/>
<linearGradient id="SVGID_33_" gradientUnits="userSpaceOnUse" x1="-339.0096" y1="145.8073" x2="-114.5296" y2="411.1573" gradientTransform="matrix(0.7923 -0.6101 -0.6101 -0.7923 776.439 385.7885)">
	<stop  offset="0" style="stop-color:#00E1FF"/>
	<stop  offset="1" style="stop-color:#007AFF"/>
</linearGradient>
<path class="st45" d="M428.9,266.5c-0.2,1.5,3.4,0.9,5.7-0.9c-2.3,1.8-3.8,5.1-2.3,5.3c-1.5-0.2-0.9,3.4,0.9,5.7
	c-1.8-2.3-5.1-3.8-5.3-2.3c0.2-1.5-3.4-0.9-5.7,0.9c2.3-1.8,3.8-5.1,2.3-5.3c1.5,0.2,0.9-3.4-0.9-5.7
	C425.4,266.5,428.7,267.9,428.9,266.5z"/>
<linearGradient id="SVGID_34_" gradientUnits="userSpaceOnUse" x1="-305.6726" y1="156.0313" x2="-81.1926" y2="421.3813" gradientTransform="matrix(0.7923 -0.6101 -0.6101 -0.7923 776.439 385.7885)">
	<stop  offset="0" style="stop-color:#00E1FF"/>
	<stop  offset="1" style="stop-color:#007AFF"/>
</linearGradient>
<path class="st46" d="M442.2,391.8c-0.3,2.6,6,1.6,10.1-1.6c-4.1,3.2-6.7,9-4.1,9.3c-2.6-0.3-1.6,6,1.6,10.1c-3.2-4.1-9-6.7-9.3-4.1
	c0.3-2.6-6-1.6-10.1,1.6c4.1-3.2,6.7-9,4.1-9.3c2.6,0.3,1.6-6-1.6-10.1C436.1,391.8,441.9,394.3,442.2,391.8z"/>
</svg>
